/* XPM */
static char *dd7af2d7ce01437ead62009ff473a713TlFT0EyKmx8eOFAi[] = {
/* columns rows colors chars-per-pixel */
"48 48 7 1 ",
"  c None",
". c #191E3C",
"X c #4B143C",
"o c #0F0F69",
"O c #1469C3",
"+ c #41D7D7",
"@ c #82FFE1",
/* pixels */
"               XXX                              ",
"              XXXXX XXX   XX                    ",
"             XXXXXXXXXXX XXXX                   ",
"            XXXoooooooXXX  X                    ",
"           XXoOooooooooooX   XXX                ",
"         XXoooOOOooooooooooXXXXXX               ",
"        XXooooOOOOOOOOOoooooooXXXX              ",
"       XXooOOOOOOOOOOOOOOOOOOOOOoXXX            ",
"       XoOOXXOOOOOOOOOO++++OOO++OooXXX          ",
"      XOO XXOOOoooOOOO+++++++++++oooXXXX        ",
"      XO XXOOOooOOOOO++++++++++++OOooXXXX       ",
"     X  XXOOooooOO+++......++@@+++OOooXXXX      ",
"       XXOOooo@OOO............@+++OOoooXXXX     ",
"       XOOoo@@@O+..............@+++OOoooXXXX    ",
"      XXooo@@@+..................@+OOooooXXX    ",
"     XXoooo@@+....................+OOOooooXX    ",
"     Xoooo@@@+....................@+OOooooXX    ",
"    XXoooO@@+......................@+OOooooX    ",
"    XoooO@@+........................+OOooooX    ",
"   XoooOO@++........................++OOoooXX   ",
"  XXooOOO+++........................++OOooooXX  ",
" XXoooOOO++..........................++OooXXXX  ",
" XoooOOOO++..........................++OoX XXX  ",
"XXoooOOOO++..........................++OoXX XX  ",
"XoooOOOOO++..........................++@ooXX X  ",
"XoooOOOOOO+..........................++@OoXX X  ",
"XooOOOOOOO+..........................+@@OoXX    ",
"XXoOoOOOOOO+........................++@@OooXX   ",
" XoOoOOOOOO+........................+@@@OooXX   ",
" XOoooOOOOO@........................+@@@OOoXX X ",
" XXoooOOoO++@......................++@@oOOoXX X ",
" XXXooOOoO++@@....................++@@OoOOoXX X ",
"  XXXoOOooO++@....................++@OOoOOoXX   ",
"   XXooOOoO++++..................+++OOooOOoX    ",
"    XXooOoOO++++@..............@@+OOOOooOOoX    ",
"  X  XXXoOoOO++++@............+++OOOOOooOOoX    ",
" XX   XXXoOoOO+++++++......+++++OOOOOOooOooXX   ",
" XX     XXOoOOOOOOO+++++++++++OOoOOOOOoOOooXX   ",
" XXX XXX XXooooOOO@@@@+++++OOOoooOOOOOoOooXXX   ",
"  XX XXXX XoooooOOO@@@@@@@OooooooOOOOooX oXX    ",
"  XX XXoXXoooooOOOOOOO@@@OOoooooOOOOooX XoX     ",
"      XooooooooOOOOOOOOOOOooooooOOoooXX oX      ",
"       XooOOOOOOOOoOOOoooooooooooooooXX XX  X   ",
"        XXoXXXXXXoooooooooooooooooooXX XX  XXX  ",
"         XXX    XXXXoooXoooooooooooXX  X   XX   ",
"                   XXXXXXoXooXXXXXXXX X         ",
"                    XXXX XXXXXXXXXX             ",
"                          XXX  XXX              "
};
