/* XPM */
static char *_39729138b6d4682bc0ec64aae83f3e6[] = {
/* columns rows colors chars-per-pixel */
"64 64 17 1 ",
"  c None",
". c #53ADF9",
"X c #53AEF9",
"o c #52ADF9",
"O c #54AEF9",
"+ c #51ACF9",
"@ c #56AFF9",
"# c #59B0F9",
"$ c #5FB3F9",
"% c #5CB2F9",
"& c #64B5FA",
"* c #67B7FA",
"= c #6CB9FA",
"- c #78BFFA",
"; c #72BCFA",
": c #7CC1FB",
"> c #8DC9FB",
/* pixels */
".X...X..X.X..XX..X.X.XXX.....X....X....X.......XXXXXX.........X.",
"XXXX.X..XXXX.X.X.X.XXX.X..X..X...X.XXX.X.X.XX.XXXXXXXXXX.....XXX",
".......X.X..X.XXX..XXX..X.X.X..........XX.X.XXX.XXXXXXX.X.X.X...",
".....XX.X.X..........XXXX......X...X.........XX...X.....X.X.X..X",
"XXX..XX.X....X......XXXX.........X.XXX.X...X..X.X.XX..XX......XX",
".......XX.X....XX.X...X..X.X..........XX....X........X..X.X..XX.",
".X..XXXX.........X.X...........X......XXX.X..XX...X.XX.XXXXXXXX.",
".X.X...XX...X..X......XX....X..XXXX...X.XXX...X......XXXX.X...X.",
"....XXXXX..X..XX.XXXX...X.X.X....X.X..X.....XX.....X..X.X.X.....",
".X.X.XX..X.X....X...........X....X.XXX......XX.X....X...X.X.XX..",
"XXXXXX..........X.X...X........X.............X.X..XX..X.....XXXX",
"......XXX.X...X..X.....XXXXXX..........XXXX..X.X....X.XX......XX",
".X.X..X..X.X.XXX.X.X..X........X.....X..XXXX............X..X.XX.",
".X.X..X.X.X.....X..X...........X.X.X....XXXX....XXXX.XX....X.XX.",
".......X........XXXXX.............X.........X..XX.X...X....XXX..",
".................X.X.....X.X..........XXXXXX..........XX....XX..",
"XXXX..X.........XXX......XXX.....X.X....X.X......X.X...XX...X..X",
".X.X..XX.X..X....X.X....X.X....X.....X.........XX.X.X....X.XX...",
"XXXX.....X.X.X...X.X........X..X.XX..X......XX..XXX....XX.X..XXX",
".Xo.X.......X....X.X..XX......X.XXX..X.X..X.XX..........X.X.X.X.",
"..OO........X..X....X..XXXXX..X.X.X..XX.X.X.X.......X..........X",
"X.$%.O.X....X....X.XX...XXX...X.XXXX.X...X.X.......XX.X.....X...",
"@@XXXX..X.X..X..X.X.XX.XX.X..XXXX...X...X.X....XX.X...XX.X.XXX.X",
".X....XX..X..XXXX....X.XX.X.XX.X....X..XX.X..X..X.X..XX......XXX",
"...XX.......X..X............X.XX.X...X..X.X..X...X.X.X..XXXXXXX.",
"XXXX.X.XXXXXX.....oO#oOo+o+...XX.......X........X.X......X.XX...",
"XXXX.XX.........OXOO.+@$#.#@o.X.X.oXX...........X............XX.",
"X.X.XX.....XX..o#OO;#+$--==OOO...O@..X..X.o..X..X.X....XX.X..XX.",
"....XX...X.X......o&&$*-:;#@%@o.oX%@++.o.O@X..X..X.XX.XX..X..X..",
".XX....X.....XX..X+.->:$-*%;&%O#@#+O&%$#+#%o.XX..X...X........XX",
"XXX...X......X.....+=-&$:$#;*=X+@-;**$&;#+..XX.......X..X.X..XX.",
"XXX.X.XX.X.X.X.X.X..O++o#O#=@#o%$&*&o++%@o......X.XX..........XX",
"..X.XXXX.X..X......Xoo..++%--O$;@++oo..++o..oXX.....X.........XX",
".X.X.X..............X.X.OXo$&#$%oo..X.o@#O.O@.XX....XXXXX.X.XX..",
".XXXX..OX.X.....X....X.OX.oO+OO+oXX...o@$*@##.......XXX..XX..X..",
"O......OO............o....@o%*o#@o..X.Xo+#Oo....X.X.X........XXX",
"XXXX.X.oXoooXo+++.oo.o+XOo%%O=@O@...XX...o.......X.XX.........XX",
".X..O.##o#$$%&***O@@#;=#OoO$$Oo.oX..X..XX.X...X......X......XXX.",
".X..X.O@o@%$X$&==+#$o%$OoX.oO...X.X..X.....X.XX.X.X...........X.",
".X.X...oXoooo+++@OX@.++OX...o..XXXX...XX.....X..X.X..XX....X..X.",
"....X.....o#%o..XO.oX..XX....X.XX.X...XX.X.X..........X.......X.",
".X.........XOX.......X...X...X......X..XXXX.X........X..........",
"..X.X........XX.X....XX.......X.XXXXX...X.X..X.X....XX...X.X....",
"..X.XX..X.X...X.XXXX.X..X.X.X...X.X.X.XX...X...X........X.X.X...",
".X..XX..XXXXX.X...X.X..X.X.XX......X........XX.......XX..XXXX.XX",
".......XXXX.....X.X.X..X......X.......X......X...X.X.......XX.XX",
".......X.X.X.........X..X.X.X.X.....XX..X.X.....XXXX...X....X.XX",
".X.X....XXXX................X.X..X.X.X..X.X.....X....X..X.X....X",
".X.X.X......XX.XX...X....X.X....X.XX...XX.X..XX.......XX.X.XXX..",
"....XX.XX.X.XXX.XXXX...........X....X..XX.X...X.....X.X..X.XXX..",
"XXX.X.XXXXXX....XXXX....X........X.XXXXXX...X.X.X.X......X.X....",
".X.X.X.....X.X......XX......XX...X.X.X.................X....X...",
".X.......X.X...X....XXX.X.X...X.XXXX..XX.....X......X..XX....XX.",
".X.X.X......XX.X....XX.XXXXX..X.......X.....X.......XX.X.....XX.",
".X.XXXX.X.X..X........X..X.XX.XX.....X......X...XXX..X.X.X.XX...",
".X.XXXXX......X..XXX.X.........X..X.XXXX....X.X.XXX.....X.X...X.",
"X.X......XXX..X...X.X..........X.X.XX.........X.XXX..X.....oXX..",
"X.XX.....X.XX.XX....XX.......X......X...........XXXXXXX...O@.X.X",
".X..XX.XX.X..X......X....X.X..X......XX......XX..X.X.X.X.o@#..XX",
"....XX.XX.X.....X.X..X..X..............X......X.XXXX.......oX.X.",
"....X..X.X.X...X.......XXXXX...X.X.X..........X.....XX.......XX.",
"......XX....X...........X.XX..........X......XX......XX......X..",
".X.X.....X.XX...........X.X....X....X....X.X....XXXXX....X.XXXX.",
"......XX.........XXX....X.X.X..X....XX.X....X..X.......XXXXXX..."
};
