/* XPM */
static char *_47d439afbbe462a8a66ad6565832afcorAJ4NZGAq0c2Vfe[] = {
/* columns rows colors chars-per-pixel */
"64 16 25 1 ",
"  c None",
". c #122D17",
"X c #311A29",
"o c #222034",
"O c #45283C",
"+ c #416129",
"@ c #292F46",
"# c #502754",
"$ c #C6713E",
"% c #8B3753",
"& c #A4BA4A",
"* c #FFC866",
"= c #5A7F8F",
"- c #5D54A4",
"; c #9D65C9",
": c #7FBCA1",
"> c #FF9292",
", c #B1E1A2",
"< c #EDF3A4",
"1 c #D789D7",
"2 c #EFB4EF",
"3 c #FFDCDC",
"4 c #CBDBFC",
"5 c #E0F3FF",
"6 c white",
/* pixels */
"                      oooo                                      ",
"      oooo          oo$**$oo           oo                       ",
"    oo,,,,oo       o##%$%%##o         o..o                      ",
"   o@=:,--=@o     o%44#%#4#%%o      ooo++ooo          oooo      ",
"  o@-@=-21-@@o   o%4654#464$%$o     o.o&&o.o        oo#3%#oo    ",
" o@-1-@-1;-@=@o  o$4554%%4$$$$o   ooo+.<<.+ooo     o#33>3>%3o   ",
" o==-=@@--=@-=o o##*44$%$*$44*#o  o..o&..&o..o    o#33>>##>33o  ",
"o=::==@=@@=-1-=oo%##***###4654#o  o&+.o++o.+&o    o33>###>%>3o  ",
"o:,--=@==@=:-,:oo$%##*##%#4554%o   o<+o&&o+<o    o#3>#%#%33%>#o ",
"o@-21-@=:=:,,,@oo*$44##%4%#44%*o    o<.<<.<o     o>###3%>3###3o ",
"o@-1;-=:@:,@--@oo*4654%464%%%$*o  ooo&+..+&ooo   o#3#%#>33>#>#o ",
"o@@--@:@@,@-21-oo#4554$#4#$44*#o  o&..&<<&..&o    o#%>>3333>#o  ",
"o@=@=@@-@@@-1;-oo%#44$##%#4654#o  oo<+....+<oo     o##3%>>#oo   ",
" o:==@-1-=@=--o  o$%##4%$%4554o    oo&<&&<&oo       oooooooo    ",
" oo,:=:-=:=:,oo  oo$*464*$%44oo     ooo++ooo         oOXXXo     ",
"   oooooooooo      oooooooooo         oooo            oooo      "
};
