/* XPM */
static char *e7afe8842cce44f9aef5785304f2a53aQjfVcCKc5fzZBDAZ[] = {
/* columns rows colors chars-per-pixel */
"64 16 19 1 ",
"  c None",
". c #122D17",
"X c #222034",
"o c #416129",
"O c #292F46",
"+ c #522546",
"@ c #502754",
"# c #C6713E",
"$ c #88304E",
"% c #8B3753",
"& c #E23E57",
"* c #A4BA4A",
"= c #FFC866",
"- c #5A7F8F",
"; c #7FBCA1",
": c #B1E1A2",
"> c #EDF3A4",
", c #CBDBFC",
"< c white",
/* pixels */
"                                    X X                         ",
"                                   X&X&X                        ",
"      XX                           X$&$X X X                    ",
"     X-OXX                          X+X X&X&X                   ",
"    XX;-OOX                        X&X&XX$&$X                   ",
"    X,X;O-;X                       X$&$X X+X         X XX X     ",
"   X,<,XO;:X                        X$X X&X&X       X&X$&X&X    ",
"   X,<,XO-OX          XXXX         X&X&XX$&$X     X X$X++X$X X  ",
"   X<<<XOX,X        XX%#=%XX       X$&$X X+X     X$XX+&XX&+XX$X ",
"   X<O<XX,<,X      X#=@%%@=#X       X+X X&X&X    X+&XX$&&$XX&+X ",
"    X:O;X,<,X      X@%=@@=%@X       XXX X$&$X     X+$X+XX+X$+X  ",
"     X;-X<<<X       X@%##%@X        Xo*X X+X       X+&X$$X&+X   ",
"   XX X-X<X<X      X>XXXXXX>X        X*X X*X       XX+$XX$+XX   ",
"   X;XO;OX;X       X*>Xo*X>*X        Xo*X*oX       X;XX--XX;X   ",
"    X-;;;-X         XoOo*OoX         X.oXo.X        X-X-;X-X    ",
"     X-O-X           Xo**oX           X.o.X          X;;;;X     "
};
