/* XPM */
static char *_60da90506fe45f1d5b49559280703bbQhKxo58562RDyk5k[] = {
/* columns rows colors chars-per-pixel */
"64 64 61 1 ",
"  c #97D778",
". c #97D978",
"X c #99D979",
"o c #A0DF7E",
"O c #97E078",
"+ c #99E179",
"@ c #9AE87C",
"# c #AEE877",
"$ c #A2E17F",
"% c #AEE779",
"& c #A3E87F",
"* c #ADE87B",
"= c #B0E877",
"- c #B2EB78",
"; c #B8EF78",
": c #B7F079",
"> c #B6F07A",
", c #B7F07A",
"< c #B0F07F",
"1 c #B8F078",
"2 c #B9F078",
"3 c #B9F179",
"4 c #B8F07A",
"5 c #BFF77E",
"6 c #C0F77F",
"7 c #C0F87F",
"8 c #9FDF80",
"9 c #A0DF80",
"0 c #9FE080",
"q c #9FE780",
"w c #9FE786",
"e c #9FE880",
"r c #9FE887",
"t c #A0E080",
"y c #A2E180",
"u c #A1E183",
"i c #A0E680",
"p c #A6E781",
"a c #A0E687",
"s c #A2E880",
"d c #A7E880",
"f c #A7E882",
"g c #A0E887",
"h c #A4E987",
"j c #A8E880",
"k c #A9E880",
"l c #AAE980",
"z c #AFEF80",
"x c #A1E788",
"c c #A7E78E",
"v c #A7E78F",
"b c #A1E889",
"n c #A7E88F",
"m c #A8E88F",
"M c #B0EF80",
"N c #AFF080",
"B c #B0F080",
"V c #B1F080",
"C c #BEF680",
"Z c #A7E890",
"A c #A8E890",
/* pixels */
"Am&ottttttttttttttttttttttt9XX8X XX X..onsZZmmAAAZAAAAAAAAAAAZen",
"mp++9$tttttttttttttttttttttXX99XX  XX.X$e+nZesAAnsnAAAAAAAAAAs+q",
"@++Xoooottttttttttttttttttttttt  XX XX @+Oe&+eZZq+sZAimmmsmZneO+",
"++++Xo$oXtXXtttttttttttttttttt9XX. XXXX.O+e+++eq++qn@+&mi+sns+OO",
"X++..XXXXoX tXttttttttootttttttX $9XXX..O+OO+O.+O++@+++@+O&&q+OO",
"XX. ..XX  XXtXXt8XtttX$$ttttttt9X9t9XXO++++OO+O.+O+++++OO++@+.O+",
" X X.XXXX  X XX8XXtttt$ottttttt=$8tti++&st++++q&+OOOOO+O+O+O+.+O",
"X X ..XX XX X  XXXXttXootp*ttt=;$9=$t$##tt=O&#&%&.O+O+O++OOO+  +",
"X X  X XX  X     X oXXo$X*>%$%35=tC3$#3=t%>+#;&;%O&;+@++.+..+.X.",
" X XX X XXX X   X     Xot=5;=;5>;=35=;C3=363;5#6>&;5&>++@+ X+ ..",
"X X  X XX XX..   XXX   .f-3533;>;3>3;63;163;53;35=5317+&3XX XX.X",
" X  X X  XX ... X XX  X$-3111;;31;3;3;33131133>;331115&>5X X XXX",
"$X X X XXoXXXXXXX XX X k;;>3;3;;#;3;=;=31;=;3333311111>5>X XXtXX",
"=o Xo X o#XXXoXX X XX  =;-;;-;3%$%;=t%t=;#$;=;33;1111111>*X X-XX",
"==Xo=o o==oXo=oXX  X X%=%$;%t-3-$$%$t=tt%$8%$=;=;111111133Xo==$=",
"==$===o====o==oooXX XX=%$$*tt9%t80tttttt$$99t%=t%3;#11111;3=====",
"=====*====-=%k%t%XXtXX%ttt%tttttttttttttttttt=tt$;%$-3#;3;;=kk==",
"=*%==-====k*fkk===tttX$ttttttttttttttttttttttttt$%$$-k9-;==kkp-=",
"kp*=%kfk=k&f&lk=l-9ttt9tttttttttttttttttttttttttttXtkttk*k=k&&k%",
"kkppkkkkkkkk&lkkk999tttttttttttttttttttttttttttttttttttuktpklfk%",
"pkkkkf&kkkkkkkkktttttttttttttttttttttttttttto$Xtttttttttkttklkkk",
"&kkkpkkk&fkk*pkktttttttttttttttttttXXttXtttX$$tXXttXtttt9X9tkkkk",
"kkkk&fkkkkkk;f&;*kttt9ttttttttttttXXX9XXXXXXt$XXXttXXttXoXX9kkkp",
"kkll&;kk3pk;6&;5k3ktt&ttttttZttcttXX XXXXX XXX  XtXXXXXXX X99;k&",
"k;kk;5;*5>f53>53kC>t*;08uctcmtZAAXXX  X X X X  X X XX  X XXX$5;k",
"363*53>;;5331111337k>CkuZAuAAmAAAtX9XX X X X.XX X X  XX+X;$X35>*",
"533>3;11;33;1111>;33C>&cZAAZAAAAAm9mtXX X  XXX X X XX $-$;;tC5>;",
"33>311111>3>111;13;3;;-;hnAbbAAAAAAAmtXoX X X X X X XX;;$>3;53;3",
";;11111111111133113;1135>bnrrnAAAAAbcctctXXXX XX  X  $>;;1>353;;",
";31111;3113=;13==;3=;1135hbbrbbZnbnrbnbAAXXX X oXXoXX>33111;3;f;",
"#311;==31;=%=;====3==;313%grbbbnbbgbbnbAbXXXXXXioX&oXf;>;*>3;&s>",
"%=;;#+%=;+#=%+#=%+=%+=;;#+w@rrnnbrbbnAZAstXtsXtsi @& e*3k@k>*e&>",
"+===OO+#+O+=+O+=O+#+O+=#++gggbbbrgbnbgbr@iXee0see0se0ssf&esf&eef",
"O+=+OO+.++O+OOO=OO++O+#+O+abbbfbbfgbggrbr&tfeseeseseeeeeeseees@&",
"O+=OOO++O+OOOOOOOO+O+++OO++grbzfgNkgkafrbgeseesseseeeseseesseeif",
"&++OO+++O++O+OOO+OO.+O+O+.+g&gBBg<NbB&bbfrreseeeeeeseseeseeessee",
"&&O+.$O+oO+O#..O$OOO+++++@+&MkBBkBNkBNbkzkb&kafiseeseeseseeeeees",
"&@+.oX++Xo.#XoOO.$.++X+e+<fVBBBBNBBBBBkBBNbfBh&hseeseseeeessesee",
"ti@+.Xoo...$ X++X.+$X+@NfB<<BBMMB=BBBBN>BNkNBbMlerkeeesseseesese",
"X+&$X oXXX+.  oXX.$.Xiz<<tB<=;MM===<BBB=BBNNN*BMrkNsseeeeeseeese",
"XXoX X XX X    XXXoX .$-$X--==M-==--;M=*MMM=MMMBkNNkssssseeesse0",
" XX X X  X X  X  X    X$ X*=*-*==-=%3-==-M==MMMMNBBNfes@ses&ee0X",
"X X  X XX XX X XX X X. X X9===*====*=*-*===*-MM%BBNNf@sfsss%sitX",
" X XX X  XXXX X  X XX.X X X===9==t*=======--%M%=B=<<%f&=&s%>&t8$",
"o Xo XoX  X     X X  X X XX#==tt=9t==t==%=--========;%&>%*;5=t$=",
"=X$%X$=XoX X.   XX XX X X Xo=uttt9t*u9*=%9*====%=3=;5;#53%533t=3",
"Ct%;$=;$=oXX..   X X XXXXX9t$ttttttt$9t=99-=9%%==>3311;35;113#3C",
"3=35=;6=3=o...X X XoXXo$9Xtttttttttto$tt99=99=-==;;31;3>33>3;33C",
"3;5336;3C;%XXXXX  Xt9X8ttttttttttttttttttttt$=%k;>33111111111111",
";3>;;3;435%0X&-pXXttttttttttttttttttttttttttt*tt;;%;111111111111",
"11313;;;;3-*9k%=ttk9ttkttttttttttttttttttttttttt;%$;111111111111",
"11113=;;;%;%k%==#k%ktk#ktttttttttttttttttttttttt%$$%111;11111111",
"1;=3;==;-=;=-=%====*k*%-tttttttttttttttttttttttttttt>-;3;33;11=;",
";==3===;=*==#=kk=%k-=====tttttttttttttttX9ttXXttttttt=3;3;=;1;==",
"====-==-====%kkkkkkk=*k==tktttttttttXt9o XtoX $$XXttoX;3;=*=>===",
"%===*&==*k-%kkkkpkkkkkkl%=%ttttttttXXXtXXXoXXXXXXXXtXX=3;=-=====",
"k-==k&%-kk%*pkf&kkk&&lll=&&#o ooXtXXXXoXX X X  XXXXXXX%;==%=====",
"kk=kkpk&kkpkkkl&k&kfll&&=*X$X oXXtXXXXX  X X XX XXXXX0b==*h%==-k",
"kkp&kkkfkkpk&plksfffpkff& .#X XXX X  X XX  XXX X8XXatxZb*hZg-=xk",
"xkkkkkkkkkkpfp&pef@sXfffX X.X XXXX XX X  XX9X X$cXtnbnAZbmAZxfZf",
"Zkf&fkfk&ffs&kseiisttsftX X   X.XX X X XX tctXtZAtcAAAAAZAAAxZAb",
"Zbkkes&kfffsXssettetttst8X X  ..XXX X X 9XcAAtcAAAAAAAAAAAAAZAAb",
"AZkktses+fe0tte0tttttttttXXX   X X XX  Xc9ZAAAAAAAAAAAAAAAAAAAAA",
"AAksttet00stttttttttttttXXtt  X X X  X $AAAAAAAAAAAAAAAAAAAAAAAA"
};