/* XPM */
static char *image_12__1_1708862770[] = {
/* columns rows colors chars-per-pixel */
"64 64 87 1 ",
"  c None",
". c #76573B",
"X c #76593D",
"o c #7B5B3D",
"O c #765A40",
"+ c #7B5E42",
"@ c #7D6045",
"# c #7B6148",
"$ c #805E3E",
"% c #83603F",
"& c #825F40",
"* c #846344",
"= c #8A6645",
"- c #8F6946",
"; c #83664B",
": c #896749",
"> c #85694E",
", c #8C6B4A",
"< c #906A47",
"1 c #926D4A",
"2 c #96714E",
"3 c #98734F",
"4 c #866C52",
"5 c #896E53",
"6 c #916F50",
"7 c #8C7154",
"8 c #8E755B",
"9 c #947454",
"0 c #9A7552",
"q c #977856",
"w c #9C7955",
"e c #91765A",
"r c #957A5D",
"t c #9D7D5B",
"y c #A17F5D",
"u c #957C62",
"i c #9A7E63",
"p c #A07F60",
"a c #9F805E",
"s c #A1815E",
"d c #9C8166",
"f c #97816C",
"g c #9C8369",
"h c #A48463",
"j c #A88765",
"k c #A78865",
"l c #A98966",
"z c #A2866A",
"x c #A4896D",
"c c #AD8D6B",
"v c #B08F6D",
"b c #AF906E",
"n c #B1916E",
"m c #A58B71",
"M c #A98E74",
"N c #AC9174",
"B c #AD947A",
"V c #B49573",
"C c #B89776",
"Z c #B79876",
"A c #B99976",
"S c #B39779",
"D c #B5997B",
"F c #BC9D7B",
"G c #BFA07E",
"H c #C0A17E",
"J c #AF9880",
"K c #B59C81",
"L c #BD9F80",
"P c #BEA182",
"I c #BCA489",
"U c #C4A583",
"Y c #C7A886",
"T c #C8A987",
"R c #C0A689",
"E c #C5A98A",
"W c #CAAB89",
"Q c #CDB08F",
"! c #C6AD91",
"~ c #CBAF90",
"^ c #CEB395",
"/ c #CFB598",
"( c #D1B495",
") c #D0B698",
"_ c #D5BC9F",
"` c #D6BCA0",
"' c #D5C2A2",
/* pixels */
"````'__``````__`__```____``_____________````````````_```````````",
"WWWWQWWWWQWWQWWQWWWWWWWWWWWWWWWWWWWWWWWWWWWWWWWWWWWWQWWWQWWWQWWW",
"WWWWWWWWWWWWWWWWWWTWWWWWWWWTWTTTEWTWWWWETWTWWWWWWWWWWWWWWWWWWWWW",
"W^WWWWWWWWQWWWWWWTWWWWWTTTTTTTTTTTTTTTETWTWTWTTWWWWWWWWWWWWWWWWW",
"WWWWQWWWWWWWWHxzmUTTTTTYYTYTYYTTYYYYFSGRTTTTWTTTWWTWWWWWQWWWWWWW",
")WWWWWQWWTWWWCq9:MWTTTYYYYYTYUUTYYYxgggcUTYTTTTTWWWTWWWWWWWWWWWW",
"(WWWWWWWWWTWWWDzB!YYYYYYYUYUUUYUUUFg0<1:LTYYYYTTWTTWWWTWWWWWWWWW",
"^WWWWWWWWWWWEWWWWYYYUYUUUUUUUUUUUUUh$*$XEUUYYYYYTTTTWTWWWWQWWWWW",
"(WWWWWTTTWWTTTYYYUUUUYUUUUUUUUUHHUUYDgm!EUUUYUTYYYTWTWTEWWWWWWWb",
"(WWELDDYTTTTTYYYYYTUUUURHUHHHUHHHUUFUUYUUUUUUUUTYYYLDDDUTWWWWWWM",
")WEzzggzLWTTYYYUUUUUUUUPGGHUGGHHGGFHHHHHHUHUUUUUUSifzgzzVHWWWWWM",
"(WRh1<,&cWTYYTUUUDSxdiiigddgxcCFFGGFHFHHHHHHHUUUFih01<19yCWWWWTN",
")WWTd55m^TTUUYFmiigzhhhhphhzlxgdcCFFFFFGFGHHHHHUUp-<<<<-.SWWWWWN",
"/WWWW((WTYTTUxgxz061<<1111222wyhzglCAFFFFFFFHHUHURx>+X+4S(WTWWTN",
")WWWWTTTYYTHgmz01<<<<<<<<<111230wyhhCAAAFFFFHHHHGUE~~/^(WWWWWWTm",
")WWWTTTTTUUMmy021<<<<<<<<<<<11230yyyvCAAAAFFFFHHHHUUUUYYYEWWWWWM",
"^WTWTWYYTTHzhw032-<<<<---<<<<<123wt0aACCCAAAFFFGGHUUUUUTTTWWWWYM",
"(WWWWYYYUYUxtw0021<<<-<-<---<<<233wq9FnnCAAAAFFGGGUHUUUTFcmDYWTM",
"^WWWWYYYTUUA0ww032<<<<<<<---<<<<33w:gCnnVcxlVAAFFHGHUUTUzzi9PWTM",
"^WWWWYYYUUUUn2ww03211<<<<<<---<233*8DbnncrgitVAFFFGHHUUULr:i~TTM",
"/WWTTTTYUUUHUD9,000221<1<<<-----%#gPvcvncr-=oDCAFFHHHHHUTW(~WWTM",
"^TDmNHYUUUHHGGRSr>=,12222,<-*o.;gDNllllccNgiBFCZFFFHHUUUYYYTWTWM",
"^FddrhTUUUUHGGFFPPDmi84>>458dMDZllhkjllcccVSSVVCAFFHHHUUUYYTTWEM",
"/Tc55KTYUUHGFFFAZVVVVZZDDVNblklsshhhjjjllcllcccSCAFFHHUUUYYTWTTM",
"^WQ^^WTUUHUGGFAAZVnnnccllhjsssssshhshha7558uuiiiiihzSFUUUYTTTTTM",
"^TTTTTUUUHHGFAAAVVnnccllhjhhssssssaa74udhyiw0qwtyhzxzzcFUUUYTTTM",
"^WWTTUUUYHHGFFZZVnnnclljlsssssssss94gkq,--<<<1111200wyslDUTYTETM",
"^TTTTTUGbxgzNZAZVnnblt779ssssatts98ct22<<<<<<<<<11110wyyhAYTTTEM",
"^TWTTUMfgzhzzdbVnnnc9uddt9taatatt4cw032<<<<-<<<<<<1120y3yhETTWTM",
"^WTTTNxh3<<20thVCnnct2---@hsyttawqsww3211<<<----<<<1123yy5WTTTTM",
"^WTTTMh321-2332VVnncl7+.Xrxatttwtqwwy3211<<<<<<-<<<<120w1,~TTTTM",
"^WTTTD3332<122oDnnnclNVSVxhtattttt0233321<<<<<<<<<<<1206+RTTTTTM",
"/TTTYTb-,2,:*.xFnnvclllsssaaaattttsw,,222211111<<<-<1:o5!EUTTWTm",
"^WWTYTERze>5gIPCnvvclcskssaawwawtwtaxa4@*,11211,-:%.+uI^RYUYYTTN",
"^TWTYUUUTWWWUAACVnccclksssaaaattaataahbbxdr7>>457fMIEEUHUUYYTTTM",
"/TTTYYTUUUGFFFAnVnnccllhssatq6677qtaaaahklbnFFKGGFFFFHHUUUYYTTTM",
"^WTTTUUUUUGGFFACVnnbbllhlt>48uiit879asshhlllcbnVVZAFGGHUUYYYTTTM",
"^TWTYYUUGHHFFFAClarhlclkq7xd01120wsd9askhlcccvVCZAFFGGHUUUYYTWTM",
"/WTTTYUUUHHGFFAVtrq,bllaul032<<12200ttkklllcnnhudNFFGHHUUUYYTTWM",
"^WTWTYYUUUHHFFAAVdfBVblrhw0021-1290000lklcccncrht9FFGHHUUYYYTWWM",
"^WWTTTUUUUGHFFFADZAVnccstww032<-<20028clllbbnVc5>zUFGUUEUYYYWTYM",
"^WTTTTYYUUUFFGFAZCVnnnnch100321-<23,#SllcbbnnVAPELGGGLFMxxSLYWTM",
"^WWTWTPZVSFGHFFFAAZVnnvcnMe::1-=%o+rDccccnnnVVCACFFGGAizzpihLWTM",
"^WWWTNgggdgNGHFFAACVnnnnccVSmduugBKVccccnnnVVCAAFFGHLDt<--<&MWEN",
"/WTWPgd2,120AHGGAGAACnVnccvccncVbcccccbnnnVVVAAFFFGHUUV>+X+u^TTM",
"^WWTUh-----.HHHAGAAVCCVVVnnnvvccccnnnnnnVVVVCAFFFGGULUT~~/)~TWTM",
"(WWWEWd*XX>KWHHGGAAAAACVVnxhhzcVnnnnnnnztuuuuidlDFHUUUUUETTWWWTM",
"(WWWTWW^^^^TUHHHHHGGAAACNridiiicVVVnncrgxhrtshzxzcFUUUYYYTEWTWTM",
"/WWWTWTTUTUHTHYHGGFFFFCAlh9<111hVVVCVicy011<1220wtCUUUYYYTTWWWTM",
"(WWWWTTTTTTTUHUHUHGFFFFFAd*oo.#KAACCDh60001<11200*MYYUTYTTTWTWTM",
"(WWWWWWTTTUUGGZNNNNCAFFFFUPKKIEFAFCAAFp::111<<:*+i!UUTTTTTTWWWTN",
"(WWWWTWWUSggfggxzxzzzdzNAFFFFFFFFFFFFFLUSi84>5uB!WUTYTTTTTTWWWWN",
"(WWWWWWSgmxtq3221200yyjzzVFFFGFFFFFFFHGGLYWWW~WEYYYYYYTTTWWWWWWN",
"(WWWWWSgcw32----1<111200ihCHFUGFGGHHGGHHUGUUUUUUUYYYYYTTWWWWWWWM",
"(WWWWTmkq0332<--<<<112200whUUUFHHGHULUUULUUUUUUUYYYYTTTWWWWWWWWM",
"(WWQWTbqww032<<-<<<11120w2eWUGUUHUUHLFFLUUUUYUYYYYYTTTLMMDWWWWWm",
")WWWWWWt2qw021111<<<<120,#RTUUUUUUCgigigzLUUTYTYYTTTTTxdp9UWWWWM",
"(WWWWWW(V5:90222111<--++i^WUYUUUUUzpq9606pWTYTTTTWTWWEUt4i^WWWWm",
"(WWWWWWWW(RNu5>*+++;4gK/^YUUTUUYTUUi&+X+5IWTTTEETWWTWWW()(WWWWTm",
"WWWWWWWWWWWW()^/)/))(~WEYYTTTTYTTUTW/~/)(ETTTYMzzSTWWTWWWWWWWWWW",
"WWWWWWWWWWWWTWWTWWTWTTWTYYETTTTTTTTTEETTTTWTTUiq6>WWWWWWWWWWWWUW",
"WWWWWWWWWWWWWWWWWWWTWWTTWWWTTTTTTTTTWTTWEWTWWWEMmI^WWWWWWWWWWTWW",
"WWWTEETTWTTWTTTTWTTTETTTTTYYWEYYYYTTTTTYWTTTTTWWWWTTEWTTTTETPWWW",
"WWWWigggdggdggddiggdgiggidgiidggdgggiggiigiggigigggdddggdgdWWWWW"
};
