/* XPM */
static char *_f4b5b54efe14549eddee147c7e3e634jZweIVRNjBhcUaF8[] = {
/* columns rows colors chars-per-pixel */
"23 27 10 1 ",
"  c None",
". c #EA426D",
"X c #D63C64",
"o c #EF5474",
"O c #FF7B96",
"+ c #FFA3B6",
"@ c #ECF0F1",
"# c #E4A672",
"$ c #EAD4AA",
"% c white",
/* pixels */
"                       ",
"       ........        ",
"      XXXooOOooo       ",
"     .XXXoooOOoo.      ",
"     .XXXoooOOoo.      ",
"    OOOOOOOO+@@+OO     ",
"    .XXX.oooo++oo.     ",
"    .XXX.ooooOOoo.     ",
"    .XXX.ooooOOoo.     ",
"     XXXXXXXXXXXX      ",
"     .XXXoooOOoo.      ",
"      XXXoooOOoo       ",
"       XXXXXXXX        ",
"          ##           ",
"          ##           ",
"          #$           ",
"          #$           ",
"          #$           ",
"          #$           ",
"          #$           ",
"          #$           ",
"          #$           ",
"          #$           ",
"          #$           ",
"                       ",
"                       ",
"                       "
};
