/* XPM */
static char *_faed2686d7f4486844a1ef262ec18d9z47mZp0HnhWQcSSs[] = {
/* columns rows colors chars-per-pixel */
"26 32 7 1 ",
"  c None",
". c #04193F",
"X c #F489F6",
"o c #780BF7",
"O c #D840FB",
"+ c #FCFEFE",
"@ c white",
/* pixels */
"      ..                  ",
"     .XX...  ...          ",
"     .XXXXX..ooo.         ",
"     .XXXXXX.oooo.        ",
"      .XXXXOOOOooo.       ",
"       .OXXXXXOOOoo.      ",
"      .OXXXXXXXOOOo.      ",
"      .XXXXX++++++oo.     ",
"     .OXXXX++++++++o.     ",
"     .XXXX++...+++..o.    ",
"     .XXXX+..++.+..+..    ",
"     .XXXX+..++.+..+..    ",
"     .XXXX+.....+.....    ",
"     .OXXXX+...+++..o.    ",
"      .XXXX+++++++++.     ",
"      .OXXXXO++++++o.     ",
"       .XXXXXOOOooo.      ",
"       .XXXXXX+++o.       ",
"      .XXXXXX++++o.       ",
"     .XXXXXoX+++++o.      ",
"    .XXXXXoO++++++oo.     ",
"    .XXXXoOX++++++ooo.    ",
"    .XXXoOXX++++++ooo.    ",
"     ..oOOXXX++++o...     ",
"       .XXXXXOOOoo.       ",
"       .XXXX..oooo.       ",
"       .XXXX..ooo.        ",
"       .XXX. .ooo.        ",
"        ....  ....        ",
"                          ",
"                          ",
"                          "
};
