/* XPM */
static char *_6802abdcfe24945e4fa81ce949b37cbQt8y6awPa9KKjagQ[] = {
/* columns rows colors chars-per-pixel */
"29 31 7 1 ",
"  c None",
". c #04193F",
"X c #F489F6",
"o c #780BF7",
"O c #D840FB",
"+ c #FCFEFE",
"@ c white",
/* pixels */
"                             ",
"                             ",
"                             ",
"                             ",
"         ...    ...          ",
"        .XXX.  .ooo.         ",
"        .XXX.  .ooo.         ",
"        .XXXX...ooo.         ",
"        .XXXOOOOoooo.        ",
"       .OXXXXXXOOOoo.        ",
"       .OXXXXXXXOOOo.        ",
"       .XXXXX++++++oo.       ",
"      .OXXXX++++++++o.       ",
"      .XXXX++...+++..o.      ",
"      .XXXX+..++.+..+..      ",
"      .XXXX+.....+.....      ",
"      .XXXX+.....+.....      ",
"      .OXXXX+...+++..o.      ",
"       .XXXX+++++++++.       ",
"       .OXXXXO++++++o.       ",
"        .XXXXXOOOooo.        ",
"        .XXXXOOOOOoo....     ",
"        .XXXXXXXXXOooooo.    ",
"       .XXXXXXXXXXOooooo.    ",
"       .XXXXXXXXXOooooo.     ",
"      .XXXXOOOOOO......      ",
"      .XXXX++++++.           ",
"     .XXXXXX++++o.           ",
"     .XXXXXOOOooo.           ",
"     .XXXX...oooo.           ",
"     .XXXX. .oooo.           "
};
