/* XPM */
static char *be7efdc020eb4ab7994bcedfa8723d89oDLmGU06cOB5sG7W[] = {
/* columns rows colors chars-per-pixel */
"24 30 6 1 ",
"  c None",
". c #04193F",
"X c #F489F6",
"o c #780BF7",
"O c #D840FB",
"+ c white",
/* pixels */
"                        ",
"      ..       ..       ",
"     .XX.     .oo.      ",
"    .XXXX.   .oooo.     ",
"    .XXXXX...ooooo.     ",
"     .XXXOOOOOooo.      ",
"     .OXXXXXOOOOo.      ",
"    .OXXXXXXXXXOOo.     ",
"    .XXXXXXXXXXXOo.     ",
"   .OXXXXXXXXXXXOOo.    ",
"   .XXXXXXXXXXXXOOo.    ",
"   .XXXXXXXXXXXXOOo.    ",
"   .XXXXXXXXXXXXOOo.    ",
"   .XXXXXXXXXXXXOOo.    ",
"   .OXXXXXXXXXXXOOo.    ",
"  ...XXXXXXXXXXXOO.     ",
" .OO.OXXXXXXXXXOOo..    ",
" .OOOOXXXXXXXOOoo.oo.   ",
" .OOOOXXXXXXXXOooooo.   ",
"  ....XXXXXXXXOooooo.   ",
"     .XXXXXXXXOo....    ",
"     .XXXXXXXXOo.       ",
"     .XXXXXXXXOo.       ",
"     .XXXXXXXXOo.       ",
"     .XXXXXXXXOo.       ",
"     .XXXXXOOOOo.       ",
"     .XXXO..OOOo.       ",
"     .XXX.  .OOo.       ",
"     .XXX.  .OOo.       ",
"     ....    ....       "
};
