/* XPM */
static char *_3fe0f8ccc86498b9e24b78009448245klBqHlJQ4XktzePo[] = {
/* columns rows colors chars-per-pixel */
"35 32 7 1 ",
"  c None",
". c #04193F",
"X c #F489F6",
"o c #780BF7",
"O c #D840FB",
"+ c #FCFEFE",
"@ c white",
/* pixels */
"                                   ",
"           ...   ...               ",
"          .XXX. .ooo.              ",
"          .XXX. .ooo.              ",
"          .XXX..oooo.              ",
"          .XXX.ooooo..             ",
"           .XOOOOooooo.            ",
"           .XXX++++++oo.           ",
"          .XXX++++++++o.           ",
"          .XX++...+++..o.          ",
"          .XX+..++.+..+..          ",
"          .XX+..++.+..+..          ",
"          .XX++...+++..o.          ",
"          .XXX+++++++++o.          ",
"           .XXX++++++++.           ",
"           .XXXXX+++++o.           ",
"            .XXXXOOOOoo..          ",
"             ..XXXXO+++oo..        ",
"            .XXXXXX+++++ooo..      ",
"           .XXXXXXX++++++oooo.     ",
"          .XXXXXXoO++++++oooo.     ",
"         .XXXXXXoOX+++++++.oo.     ",
"         .XXXXX..XXX++++++o..      ",
"         .XXXX. .XXXX+++++oo.      ",
"          ....  .XXXXX+++oooo.     ",
"                 .XXXXXOOooooo.    ",
"                 .XXXXXO..oooo.    ",
"                  .XXXX.  .ooo.    ",
"                   .XXX.   ...     ",
"                    ...            ",
"                                   ",
"                                   "
};
