/* XPM */
static char *_e00202de4b74e4a986d11ef869b244aV53KcKprf3EmkgU3[] = {
/* columns rows colors chars-per-pixel */
"32 32 7 1 ",
"  c None",
". c #04193F",
"X c #F489F6",
"o c #780BF7",
"O c #D840FB",
"+ c #FCFEFE",
"@ c white",
/* pixels */
"                                ",
"                                ",
"         ....    ..             ",
"        .XXXX.  .oo.            ",
"        .XXXXX..oooo.           ",
"         .XXXXX.ooooo.          ",
"          .XXXOOOOooo.          ",
"          .OXXXXXOOOoo.         ",
"         .OXXXXXXXOOOo.         ",
"         .XXXXX++++++oo.        ",
"        .OXXXX++++++++o.        ",
"        .XXXX++...+++..o.       ",
"        .XXXX+..++.+..+..       ",
"        .XXXX+..++.+..+..       ",
"        .XXXX+.....+.....       ",
"        .OXXXX+...+++..o.       ",
"         .XXXX+++++++++.        ",
"         .OXXXXO++++++o.        ",
"          .XXXXXOOOooo.         ",
"          .XXXXXX+++o.          ",
"       ...XXXXXX++++oo...       ",
"      .XXXXXXXoX+++++oooo.      ",
"      .XXXXXXoO++++++oooo.      ",
"      .XXXXXoOX++++++oooo.      ",
"       ...ooOXX++++++....       ",
"          .OOXXX++++o.          ",
"          .XXXXXOOOoo.          ",
"          .XXXX..oooo.          ",
"          .XXXX..ooo.           ",
"          .XXX. .ooo.           ",
"           ....  ....           ",
"                                "
};
