/* XPM */
static char *_0bc53088f6b47ae9c0ee02c21dd8662uqcBIcfW5UKDl7OT[] = {
/* columns rows colors chars-per-pixel */
"108 126 19 1 ",
"  c None",
". c #2B1C1D",
"X c #2B230F",
"o c #3A2912",
"O c #101820",
"+ c #302125",
"@ c #462B11",
"# c #442E19",
"$ c #56381D",
"% c #58381C",
"& c #49342C",
"* c #63462B",
"= c #744B30",
"- c #7E6952",
"; c #A13560",
": c #DD6D7F",
"> c #EFA5B1",
", c #E9B7CB",
"< c #F3CBD2",
/* pixels */
"                                                                  :       >,:                               ",
"                                                                  :::, :::,:                                ",
"                                                                  :>::,>,:>,::                              ",
"                                                                  >,:,><,::::::                             ",
"                                                                  >:,>>>,,:,,:                              ",
"                                          ::,   ,::              ::::,>><>,,:::                             ",
"                                        ::,,,,::>>::         ==  :,,,,,<<>>>>,:                             ",
"                                         ::,><>>>::    ::   ::o::::,>>>>>>>,:,,,,                           ",
"                                         :,><<>>>>:   :>>:::>>:o:,>>>>><<>,,,,,::;                          ",
"                                        :,>>>>><,>>: :::>>>>,>>>:;;;:,<<<,:,,:,;;;                          ",
"                                      ::::,>><<>,;;  :>>:><>>>>>,:;:,,:<,:::,::::;                          ",
"                                      :,,,,,<<,,,:;:::><><<>><>>:;:,,,:::::,,,;;;,   ,::                    ",
"                                      ::::;>>::,,,:;,:>>><<>><::;::::,,::,::,:;,,;,::>>::                   ",
"                                      ::;;::::;:,;:;,><><<<><<<<;;::,,,::,,::;;;,><>>>::                    ",
"                                     ;;; ;::,,;;:;;;><<<<<<<<<<<;X;:::,;::,,:;:,;<<>>>>:                    ",
"                                         ;:;:,;o;;==>><<<<<<<<<<X$;:;;,,;:,;;;;>>>>><,>>:                   ",
"                                         ;:;;;;:;:X,><<<<<<<<<<X$<;;,;:;,;;;::;,>><<>,;;                    ",
"                                          ;:,;::,XX,<<<<<<<<<<<X$<<<>;:;,;::;,,,,<<,,,:;:::                 ",
"                       :  ::   ::::       ;;;:;::Xo>>><<<<<<<<Xo$o$<<;;::o;::::;>>::,,,:;,:                 ",
"                       >::>>:::>>:  :      ;:XX;,X>>><<<<<<<<<Xo$<oo$>;;ooo::;;::::;:,;:;                   ",
"                     ::>>,,>>,>>>:::>     ;:;:XX,X,><<>$$<<<<<<o$<<<o$$oo>;;; ;::,,;;:;;;                   ",
"              :   :: :>>>>,>>>>>,,>,,,:,,::::::X$X,<<<><o$<>><<<<>>><oo=,::   ;:;:,; ;;                     ",
"              :::::>:::>>>>,>>>,,>>,>>,,:::;;;,,Xo:<<<><<o$=<>><<<>>>>oo=,,:  ;:;;;; ;                      ",
"            :::,>>:,>>,>><>>>>>>>>>>>>>>>,,:;:,,XXo>><<<<<o=<o<<<<>><>>oo,::   ;:,;:                        ",
"            >>>:,>,,>><<><>><>>><<>><>>>>>,,::::,Xo>><<<>oooo<<>>>;;>;;ooo;;   ;;;:;                        ",
"            :>>>,>>,>>><<<>><<><<<><<>>,,,,:;;:,,,o$X<<>o<<<><<>><<>;,;;oo::   ooo  ;                       ",
"          ::,,>>>>>>><>><<><<<<<<<<<<>>>>,,,:::,:,o$X<>oo<><<>>><:<:;,:;;>,:o  :::  ::                      ",
"        ::,,>>><<>><><><<<><>><<><<<<<<<<>>>>>>::::o$<>>>>>>><>;,:;;;,:::,:ooo::>>: :>;                     ",
"         ::,,>><<<<<><<<<<<<<><<<<<<<>>><<>>,,::,::o$;;<><<>><<:;:>::;>,:>,::o ,:>>:,,:;                    ",
"         :,>,,>><<<><<<<<<<<<<<<<<<><>>>><>,::::,::oo$;;;<<<<<;:;>,:,;<,::::::;,;,,:,;:::   ::::            ",
"        :,>>><>>><<<<>>><<<<<<<<<<<<<>><><<>>,,:,,,:o$><,:,>,,,;>>:,>>>,,:,,:oo;,,,;:;:>>:::>>:  ::::::     ",
"      ::::,><<<<><<<>>><<<<<<<<<<<<<>><<<<<>,,:::,,:o$X:::,,::,;::::,>><>,,:::;:,::;;:::>>>>,>>>:>>>:::     ",
"      :,,,,,<<<<<<<<<<<<<<<<<<<<<<<<>>>><><>,,>>::::ooX:>>:::>;,:,,,,,<<>>>>,:;::;;;;:>>:><>>>>>,><:,::     ",
"    ::::,>>>>><<><<<<<<<<<<<<<<<<<<<<<<><<<>>>>,::>:XoX,:>>:,,:;::,>>>>>>>,:,,,,;@@::,><><<>><>>><<>>,,:    ",
"     :,>>>,,><<<<<>>><<<<<<<<<<<<<<<<<<<<<<>>>>,>>,:X;;,;,,:,;:;,>>>>><<>,,,,,::;::,,,>>><<>><<><<,,>>:     ",
"     :,>>,>>>><<<>>><<<<<<<<<<<<<<<<<<<<>><<>>>>>,::;OO;,,,;:;;;;;;:,<<<,:,,:,;;oo::,><><<<><<<<<><,,,::    ",
"    :,>>>>>>>>>><<<<<<<<<<<<<<<<<<<<<<<<<>>>>>>>,,,,:O;:,::;;;;::;:,,:<,:::,::::;o:,><<<<<<<<<<<>><,,,,:    ",
"    :::>,>>>>><<<<><<<<<<<<<<<<<<<<<<<<<<<><<<>>>>,:oO;::;;;;:;:;:,,,:::::,,,;:;@@,>>><<<<<<<<<<<<,,,>,::   ",
"   :>>>>>><<><<><>><<<<<<<<<<<<<<<<<<<>><<<><<<>>>,:XO;;;;,;:::;::::,,::,::,,:;@;;;,><<<<<<<<<<<<<<>,>,,,:  ",
"   ::,>>>><<>>>><<>><<<<<<<<<<<<<<<<<<>>><<<>>>>>>>,:O     ,;  ;;::,,,::,,::::@#,,;,<<<<<<<<<<<<<<<<>>,,>,: ",
"  :,,>>,><<>>><><<<><<<<<<<<<<<<<<<<<<<>><<<>>>>>>:::;      ;  ; ;:::,;::,,:;###:,>>>><<<<<<<<<<>>><<>>>::  ",
"  :,:>,,>,>,><<<<>>><<><<<<<<<<<<<<<<><>>>>>>,,>,,>,;;   :       ;:;;,,;:,:;:#o;;>>>><<<<<<<<<<<<<<<>>>>>:: ",
"  ::,,,,>,,>><><<<<<<>><><<<<<<<<<<<<<<<<>>>>>,>>,::Xo   :::, :::;; ;:;,;:;:#o;:,;,><<><<<<<<<<<<<<<<>>,,>,:",
"   :,>>,>>>>>>>><<<<<<>>><<<<<<<<<<<<<>>>>,,,>,,>,,,:oX  :>::,>,:>,:;:;,;;:#o;:,,,,<<<><><<>><<<<>>><<>>,:: ",
"  :,>>,,,,>>>,>><<><<<>><<><<<<<<<<><<><>>>,,,,,,,,:;Xo  >,:,><,::::;;:  ;;#o;,,,,:<<<><<<<<<>><<<>>>>>>,,,:",
" ::,,,,,,>>>,,><<<<<<<<<<<>>><<<>><><<><>,,,>,,,,::;Xoo  >:,>>>,,:,,:;;     ;:,,,:>>><<<<<<<<<<<<<>><>>,,,::",
"   :::,>>>>>,>><><<><<><<<<><<<<<>>><<>>>,,>>>>,,,::;ooX::::,>><>,,::: $$$ ;::::,,,>><<<><<<<<<>>>>>>:<,::;;",
"  ;,;,>>,,,>>>>>><>><,>><<<<<<<<<<>><<<>>>,>>>,,,,,::;XX:,,,,,<<>>>>,:XXooX;;;:,,,,:<<<>><<<><<>><<><,,,::: ",
"     ;:,,,>>>>>><>>>>,>,,,<<<<<<<<<<<<>>>>>>>,,::,,;;o::::,>>>>>>>,:,,,,ooXX;:,,:,::<<>>><><<>>><<<:,,:,;;: ",
"    ;:,,,>>>>>><<<<<,,,,,,><<<<><<<<<>>>,,>>,,::,,,:;oX:,>>>>><<>,,,,,::;OO;:,,,:::<<<>>>>>>><><,<:::,::::; ",
"   ;::::,,,,>>><<>>,>,,,,,>,<<<>><,>>>><>,,,,,::,,,::;oX;;;:,<<<,:,,:,;;  ;::::,,::,><><><<>><<:,:::,,,;:;; ",
"   ;;::,,,:>>>>>>>,,>,,,,,,,>>,>>,,,>,,,,>>>,,:::,,,:;oX:;:,,:<,:::,::::; ;;::,,,::<>><<<<<<<<<:::,::,,:;   ",
"   ; ;:::,,,>>>>>>,>>,>,,,,>>>>>>>,,,,,>,,>>,,,:;:,;;;X:;:,,,:::::,,,;:;; ; ;:::,,,:,>><,:,>,,,>>:,,:::::;  ",
"     ;:;;,,,,::,>>,>>>>,,,>>>>>>>>>,,,,>>,,,,:,,;;:; ::;::::,,::,::,,:;     ;:;;,,,::::::,,,:,,>,::,,:;:;;  ",
"     ;; ;:;:,:::,>,,>>,,>,>>,>>>,>>,,,>>,,>,,::,; ;;  X;;::,,,::,,:::::;ooo ;;,;::,,,:,,::,::,,,,;:,:::;    ",
"        ;:;,:::,,>,,,>,>>,>,,,>>,,,,,,>>>,,>,:;;;o;    ;X;:::,;::,,:;:;;OOo;;::;,,,,,,,,,:::,,,,,:,:;::;    ",
"        ;;:::;;:,,,>,,,>>,,,,,>,,>,,,,>,>>,>:::;o      Xo;:;;,,;:,:::;    O:,,,;,,,:,,::,::,,:,,::,:;;;;    ",
"         ;;;; ;;,,,,,,,,>,,,,,,,,>>,,,>,,>,,:,,:;       o;;X;:;,;:;::;   ;;::,>>;,,:;,,::::,,,:,::,;        ",
"              ;;:;:,:::,,,,>,,,,,,>>,>>:,,:,::,,:;      oo-X;:;,;:;;;;    :,>>>>::,:;,::;;::,:;::,,;        ",
"              ;;:;,:::;,:,>>,,>,,,>>>>,::,:,::;;;       Oo-X;;:  ;$O      X;;;:,:;;;:::;,;,:::;;,,:;;;      ",
"               ;;:::;;::,,>,,,>>,,,>,>,::::::::;  ::    Ooo-X;;  $$O     X-:;:,,;<,;;;;::;,,:;;:;,:;::;     ",
"               ;;;;; ;::::,:,,>,,,,,,,:,::,:;;:;   :: XooOo-X   $$O     X-:;:,,,:::::,,,;:;,; ;:;:;;:>;     ",
"                     ;:,:,,,:,,>,,::,:,,::,,;X;   :,,:OOOoo$-X  :;O    X::;::::,,::,::,,:; ;; ;,:;>:,,:;    ",
"                     ;:,::,,:,,::,:,:,,::::,oX$X  ;::; : Oo$-X >,;O   X-$X;;::,,,::,,:::::;  ;;,;,,:,;:;    ",
"                      ;:::,,,:,::,:,::,:;:::Xo$X   ;;; ;::;$;::,:XO  X-$XO; ;:::,;::,,:;:;;O;OO;,,,;::;;    ",
"                      ;;;::,:;::,,::;;::;;;;XXX$XX  ;  ;>::,>,:>,:; X-$XO   ;:;;,,;:,:::;     ;:,::::;      ",
"                        ;,:::;;,,:;:  ;:;  ;  XX$X    ;>,:,><,::::;;X$OXO   ;;X;:;,;:;::;     ;::;;:;       ",
"                        ;,,:;  ;,:;,   ;       XX$X   ;>:,>>>,,:,,;X$OXO     $X;:;,;:;;;;     ;;;  ;        ",
"                         ;,;   ;:;;;X$$$$$$X    Xo$X  ;:::,>><>,,::;OXO     $X ;;:;;;oo                     ",
"                          ;;    ;   OX:::XX:;XXXXXoX ;:,,,,,<<>>>>,;oO     $X   ;::;OOO;;;                  ",
"                                    ;;:>>: :>;OOooo$;;::,>>>>>>>,:,;;;     $X  ::,,;;;:>>;;                 ",
"                                    ; ,:>>:,,:; OOX$X:,>>>>><<>,,:,,:;;    =X XX::,><<>>;:                  ",
"                                   ;;;,;,,:,;:;   Oo$X;;;:,<<<,::,:;;;    =$$oXO:,><<>>>;;                  ",
"                                   ;  ;,,,;:;;;    OoX:;:,,:<,::::::;:;  -$XXXO:,>>>>><,>>;                 ",
"                                     ;:,::;;;      Oo:;:,,;::::::,;;:;;$-XXOO::::,>><<>,;;:;                ",
"                                     ;::;;;;       ;:;:::;,,::,:;:;;;XXXXoO  ;;,,,,<<,,;:;::;               ",
"                                     ;;;  ;         X;;:;;,:::,;:;::;;XoOO   ;:::;>>::,:,::;;               ",
"                                                     ;X;;:;:;::;::;:;;OO      :;;:::;;::;:;                 ",
"                                                       ;:;;:,;:;:;;;OO        ; ;::,;;;:;;;                 ",
"                                                       ;;X;:;:;:;:;;            ;:;:,; ;;                   ",
"                                                       XXo;:;:;:;;;;            ;:;;:; ;                    ",
"                                                        XX;;:Xo;                 ;:,:;                      ",
"                                                        XXo;;XoO                 ;;;;;;                     ",
"                                                         X$OX-oO                      ;                     ",
"                                                         X$oO$-oO                                           ",
"                                                         Xo$o$-oO                                           ",
"                                                         XX$o$-oO                                           ",
"                                                         OX$$XoO                                            ",
"                                                        OXo-$o$O                                            ",
"                                                       OXo-$OoO                                             ",
"                                                      OXo-$Oo$O +  +                                        ",
"                                                     OXo*-$OoO+++ ++ ++                                     ",
"                                                    +Xo*-$Oo$O+++++++++ + ++                                ",
"                                                  + +Oo*-$oXO++++++++++++++ + +                             ",
"                                                  +++OX-$$oXO+++++++++++++++ +++                            ",
"                                              ++  +++OX-$oXXoX++++++++++++++++++ ++                         ",
"                                               +++++++OXooXo$oOOOO++++++++++++++++++                        ",
"                                            +  +++++++OOOOoXo--$$$OO++++++++++++++++++                      ",
"                                           ++++++++++++OXoOoXo---**$OO+++++++++++++++++                     ",
"                                            ++++++++++++OXo$O$oo$--*$$OO+++++++++++++++ +++                 ",
"                                          +++++++++++++++OXo$O$$o$*-*o$.O+++++++++++++++++                  ",
"                                          ++++++++++++++++OOo$$o$o$*--O$.O+++++++++++++++                   ",
"                                           +++++++++++++++++Oo$oo$o$*--O$.O++++++++++++++++                 ",
"                                            +++++++++++++OOOOOo$Oo$o$*-*O%.O++++++++++++                    ",
"                                         +++++++++++++++O-*$$$$$$Oo$o$%-oO&.O+++++++++++ ++                 ",
"                                    ++ + ++++++++++++++O-*o$oX$o$oOo$o$o*o$&&O++++++++++++                  ",
"                                    ++++++++++++++++++O-*oOOOo$*o$oO-oooOoo$$&O+++++++++++                  ",
"                                  +++++++++++++++++++OoOOO&&$-*oOOooO-*O&Oo**$$OOO++++++++++                ",
"                                    ++++++++++++++++OOO&&&&O-*oO&&OoOo-*o&OOo*ooooO+++++++++                ",
"                                    ++++ +++++++++++++++&&O-*oO&&&&OOOOO&&&OOOOOOO+++++++++                 ",
"                               +  +++++   ++++++++++++++++OooO+++++&&&&&&++++++++++++++++++                 ",
"                           ++  +++++++++++++++++++++++++++OOO++++++++++++++++++++++++++++++++               ",
"                         +++++ ++++++++++++++++++++++++++++++++++++++++++++++++++++++++++++++               ",
"                         ++++++++++++++++++++++++++++++++++++++++++++++++++++++++++++++ + +++++             ",
"                      ++++++++++++++++++++++++++++++++++++++++++++++++++++++++++++++++++  ++++              ",
"                       +++++++++++++++++++++++++++++++++++++++++++++++++++++++++++++  +    +                ",
"                     +++++++++++++++++++++++++  + +++++++++++++++++++++++++++++++ +++                       ",
"                      ++++++++++++++++++++++     +++ +++++++++++++++++++++++++++++ +                        ",
"                      ++++++++++++++++++++++++     + +  +++++++++++++++++++  +   +                          ",
"                     ++++++++++++++++++++++++++  ++    +++++++++++++++++++++                                ",
"                        ++++++++++++++++++++++++++++     ++++++++++++++++++                                 ",
"                       +  ++++++++++++++++++ +++++       +++++ +++++++ +++++                                ",
"                          ++++++++ ++++  ++   +  ++     + +++++ +++++ +++++++                               ",
"                         ++ ++  +  ++ ++       ++ +      ++++++++++++++++++                                 ",
"                            ++ +   +                     ++ +++++++++++++ +                                 ",
"                                                         + +++ ++ + ++                                      "
};
