/* XPM */
static char *_5174c31fc004c6682e8a298384271e8pwA3g6jmnqTKatpT[] = {
/* columns rows colors chars-per-pixel */
"23 30 19 1 ",
"  c None",
". c #8B9BB4",
"X c #E4A672",
"o c #EAD4AA",
"O c #E9E5E1",
"+ c #B55088",
"@ c #5A6988",
"# c #3A4466",
"$ c #7886A1",
"% c #C0CBDC",
"& c #848EA3",
"* c #8B9BB5",
"= c #0B6FAE",
"- c #124E89",
"; c #0099DB",
": c #2CE8F5",
"> c #6A4F88",
", c #262B44",
"< c white",
/* pixels */
"                       ",
"                       ",
"                       ",
"                       ",
"        .XXooOoX       ",
"        .XXooOoX       ",
"        .XXooOoX       ",
"        +@#@$%&@       ",
"        +@#@$%$@       ",
"        +@#@$%$@       ",
"       +$$$$*...%      ",
"      +$@@@@.%%..%     ",
"     +=---==;;::;=;    ",
"     +=---==;;::;=;    ",
"     +=---==;;::;=;    ",
"     +=---==;;::;=;    ",
"     +=---==;;::;=;    ",
"     +=->>==;;::;=;    ",
"     +=->>==;;::;=;    ",
"     +=->>==;;::;=;    ",
"     +=->>==;;;;;=;    ",
"     +=->>==;;;;;=;    ",
"     +=->>===;;;==;    ",
"     +=->>=========    ",
"     +=->>-======-=    ",
"     =------------=    ",
"      =,,,,,,,,,,=     ",
"                       ",
"                       ",
"                       "
};
