/* XPM */
static char *e7cfa39494754e09bf8d46f85e09b82c[] = {
/* columns rows colors chars-per-pixel */
"64 64 115 2 ",
"   c None",
".  c white",
"X  c #1261FF",
"o  c #83B0FF",
"O  c #89B4FF",
"+  c #BCD6FF",
"@  c #CCE0FF",
"#  c #B9D4FF",
"$  c #92BAFF",
"%  c #95BCFF",
"&  c #B3D0FF",
"*  c #D6E6FF",
"=  c #BFD8FF",
"-  c #B6D2FF",
";  c #A1C5FF",
":  c #9FC3FF",
">  c #90B9FF",
",  c #8BB6FF",
"<  c #DBEAFF",
"1  c #B1CFFF",
"2  c #7AAAFF",
"3  c #D4E5FF",
"4  c #C2DAFF",
"5  c #699EFF",
"6  c #DFECFF",
"7  c #81AFFF",
"8  c #7DACFF",
"9  c #77A8FF",
"0  c #508CFF",
"q  c #D8E8FF",
"w  c #6EA1FF",
"e  c #A4C7FF",
"r  c #85B2FF",
"t  c #5B94FF",
"y  c #9AC0FF",
"u  c #ABCBFF",
"i  c #71A4FF",
"p  c #DEEBFF",
"a  c #6198FF",
"s  c #E6F0FF",
"d  c #98BFFF",
"f  c #CEE2FF",
"g  c #639AFF",
"h  c #9CC1FF",
"j  c #2A71FF",
"k  c #C5DCFF",
"l  c #74A6FF",
"z  c #528EFF",
"x  c #E3EFFF",
"c  c #C6DDFF",
"v  c #8DB7FF",
"b  c #A9CAFF",
"n  c #679CFF",
"m  c #CADFFF",
"M  c #1060FF",
"N  c #0E5FFF",
"B  c #8EB8FF",
"V  c #6FA3FF",
"C  c #AECDFF",
"Z  c #C8DEFF",
"A  c #9DC2FF",
"S  c #3B7DFF",
"D  c #246EFF",
"F  c #5D95FF",
"G  c #D2E4FF",
"H  c #ADCCFF",
"J  c #4685FF",
"K  c #7EADFF",
"L  c #EAF3FF",
"P  c #79A9FF",
"I  c #ECF4FF",
"U  c #A6C8FF",
"Y  c #A7C9FF",
"T  c #4887FF",
"R  c #E2EEFF",
"E  c #7FADFF",
"W  c #5691FF",
"Q  c #D0E3FF",
"!  c #87B3FF",
"~  c #6CA0FF",
"^  c #97BEFF",
"/  c #5F96FF",
"(  c #C3DBFF",
")  c #75A7FF",
"_  c #F5F9FF",
"`  c #E8F1FF",
"'  c #EFF5FF",
"]  c #4484FF",
"[  c #548FFF",
"{  c #73A5FF",
"}  c #F2F7FF",
"|  c #2C73FF",
" . c #4282FF",
".. c #4F8BFF",
"X. c #3579FF",
"o. c #4080FF",
"O. c #387BFF",
"+. c #6A9FFF",
"@. c #1362FF",
"#. c #659BFF",
"$. c #4D8AFF",
"%. c #3277FF",
"&. c #5892FF",
"*. c #1E69FF",
"=. c #2F75FF",
"-. c #F8FBFF",
";. c #1664FF",
":. c #FCFDFF",
">. c #4A88FF",
",. c #1966FF",
"<. c #276FFF",
"1. c #3E7FFF",
"2. c #1B68FF",
"3. c #216BFF",
"4. c #FAFCFF",
/* pixels */
"$ u # C ; ^ o >.2.X ,.j [ [ J F l ) 5 0 %.=.1.0 a 9 P P ! ^ b & + = + & - 3 x x L -.4.x ( u d O 7 P [ %.D 2.@.*.J / 5 i { 2 B d ",
"h - c + & : O t 3.N M @.j | <.1.z z >.1.=.<.2.*.%.o.] $.0 a 7 % b C u H k s ' ' ' -.. x # : A % > o g >.%.3.2.| 0 W n K r o v y ",
"Y & # ( + : O / j M X X N N N *.o.J 1.X.<.D @.N N ;.D X.j | S t o ^ u b ( L _ -._ } _ p # u u Y y O i a  .D 2.|  .T +.K o K O : ",
"C # # ( + ; ! a X.X X X X X X M =.T S *.@.@.X X X M ;.2.@.N ,.=.$.P A 1 @ p ` _ ' L I 6 + Y e ; > o V / S ;.M D X.o.w E 7 7 O ; ",
"u ( m m = b O F %.X X X X X X N 3.S O.X M ;.;.X X X X M X M N =.$.#.7 1 < 6 p x _ . _ R c b ; : y 7 a $.| X @.D S o.t V 2 E 8 B ",
"$ + < G + A P ..*.N X X X X N @.<.%.O.,.M @.@.X X X X X X X *.o.t V v - 6 R q q } . _ s k - & u ; > ~ $.j X X ;.j |  .g w 5 +.7 ",
"> & f c b % { J ;.M X X M M ;.j S S S 3.N N N M X X X X @.*.D X.0 w , U f < * 6 ' -._ _ q = = C Y : ) $.=.*.X M @.3.O.&.g / F i ",
"^ : Y H : $ 8 [ 2.N M N ,.=. .>.] 1.%.<.3.*.2.@.X M X X ;.*.D <.X...w > # q s _ -.4.. . s @ + Y e > 5 o.| 2.;.X N ,.S ../ 5 g V ",
"$ $ % h % 7 8 #.%.;.@.D J W #.g / t W J X.o.T o.=.*.X X X @.<.| <.X.g , - ` -.. . . . . R 4 b ; > 5 ] | j 3.2.@.M D o.[ g l V 8 ",
"O % % r 9 i 9 l >.| %...V K ) l 9 2 8 g J 0 F F 0 S 2.;.;.X ,.*.j J +.O & 6 4.. . . . . q & > , K t O.j %.j <.D | 1.0 #.7 O ) 2 ",
"9 r O V #.n w l t S O...E d > o 8 o O l [ z g w g ] <.2.;.X X M @.S +.! % # 6 :.. . . :.R u , 2 n z O.%.X.%.X.$.a w ) O y d K 9 ",
"5 n V l 5 W t &.W 1.|  .V v ^ ^ > % Y $ n W a 5 t ] =.*.@.X X M @.O.F i 8 ^ # 3 I } s x 3 ; K 5 T X.*.j | X.&.7 o r , : b e O w ",
"w t E v l z o.J >.O.=.z 2 B ; C & & = & v i / / F J | *.;.X X M <.] [ #.) o U + f f = + 1 B n T %.*.X *.j $.E $ v % ; H & # b v ",
"O { v h 8 0 %.| =.j O.5 v h 1 4 f @ @ = b % 2 w w t =.;.@.X X N D T / V 8 o $ 1 # - b U d ! ~ O.D 2.M @.| W 7 B d C - # ( m c C ",
"1 % $ % K T 3.M X ,.%.g 8 , H Q 6 p q @ k u O K o a O.<.2.X X N j / l 9 r , B Y H u e : $ o n o.<.,.N 2.X.a ! , d # Z G q 3 Q = ",
"Z & A v 2 J 2.N M N D J n ! - 6 s R ` p m & ^ , % 9 &. .j ;.M M j t 9 K v ; C 1 # 1 % ! o 9 t  .D X X =. ./ r : e + Q R s s R * ",
"* = U > P 0 2.N X M 3.J ) U @ x p < p * m ( & ; y v P [ X.,.M X @.1.w O % - & e 1 ; i &.F a t J j 3.X.$.F ~ O e b + * R ' 4.-.` ",
"x @ - ; r [ <.N M N *.F $ + < L R < 6 * f * k + 1 $ o n 1.,.N M N X./ i , e U ^ , 8 W 1.O.T ..T o.0 w 2 2 O d d h 1 f p ' . 4._ ",
"I R f & $ n ] j *.;.D 5 U Z ` } x L I 6 < R < m 4 C $ K t <.M N ,.X.J &.7 % d ^ i &...S 3.D D X.z V ! O ! A u U e C = G I -.} -.",
"` s R Q & O ~ ..S =.1.w Y @ ' } s ` I 6 ` _ I * @ 4 U > l S 3.D j 1.1.z 9 7 r B n o. .X.3.D ,.| g , B , d 1 = + # 1 # 3 I } ' } ",
"6 R ` x G C % 8 #./ z a 7 A Z R x 6 * 3 p I ` 3 @ 4 H h ) J =.1.0 $.W a ) E r o [ %.X.X.O.J o.] l d ^ d 1 k 3 3 * c Z 6 I x p q ",
"G < ` L x c 1 Y $ r { 5 { V $ + f @ c c f * Q m f = & e l ] S F { 5 5 ~ n w 9 i z T $.0 / V 5 a { $ h 1 @ p ' _ _ L L I s 6 * G ",
"f 6 s ` R @ 1 ; : $ o 2 8 ) P v ; C 4 4 @ p q * * 4 Y % +.[ g 7 o i n F [ g 5 #./ i o 2 K , o P i v 1 @ I -.. . . :.:.:.:.' < @ ",
"f 6 s p * c Y v O d > o 8 w ~ i o y C = G s ` R q = ; B 8 8 $ h h O i t W g a 5 9 $ : h y A y > r A + G L } 4.. . . . . . -.* k ",
"( Q 3 k = - e O o $ % O l / 5 i o Y + ( Q x ' I s f = U y h : : Y : o g z W z g o y & + + # - Y y # m @ * R ` :.. :.:.. . :.q 4 ",
"Q @ Z = # b e B o r r 7 9 w ) O % 1 ( + k ` :.4.I p f + # # y , y d K a $.0 W n o h + * * * m = + Q f @ < ` ' . . . . . . :.R * ",
"p @ 4 4 + H e % 8 o , 7 o 8 o $ ; # = # @ ` _ } s L p Q 3 + B 8 r K ~ t $.0 $.g 2 , U + @ Q c m q * Z 3 p s } :.. . . . . 4.L x ",
"3 = ; : b u ; ; O v ^ O O o ! y & - # m * 6 s ` I L 6 6 q - , ) 8 n 0 &...J  .W i o % ; # k ( 3 I 6 @ 3 p I -.4.4.-.. . . :.` p ",
"# : K 7 > : Y ; $ A A v > > y u & - k * s I L I ' L p R < 1 > 9 n z $.[ &...>.F V , ; b # m Q q I L 3 @ < ' :.:.} } . . . } p G ",
"b o V o h - + u : U b h : u # & u # c * R L L 6 x R < < f # : 7 F [ t W F [ 0 n 2 % Y H = q < 6 ' L Q k Q * R ' ` s ' . . L Q 4 ",
"; 7 o d 1 m @ + - 1 1 & - & - - + # & k Z Q * Q * G < q Z 4 & , i l #.W W g ) 2 O U & 1 = * x x ` x @ k k # 4 < 6 * p ' } L @ C ",
"% o O ; 1 Z G 4 + 4 = m @ - H - ( # C - + & - = # 4 6 s G k = A > > +.[ / 7 $ > % ; H & = 3 < @ k = + m k - = @ @ k 3 < < p Z e ",
", O o v Y Z @ = + = f 3 4 u e C + ( # C b : ^ h A C f < @ = 1 ; h % w 0 F 7 $ > O r $ H # # # 1 ; b H - = & + = & & c @ @ m + : ",
"> o V 9 y + # # 4 ( Q k H h h Y + ( C h % > ! o O % 1 # b d v $ y v 8 g / l O , P +.P % U h h d % % : u U > y u b & m m ( = & : ",
"o l #.+.7 : - = c 3 f - y B v h b 1 : % O O 7 K 8 P $ d E ) o $ d $ 7 l V V { ~ F &.w ! % A ; A % ^ > $ O 9 , d ; - @ m & b e > ",
"a &.F #.w , - c G p Q - y v O % A % $ y o K K r K 5 P ) a 5 K B $ $ B 7 { w 5 g / #.2 > y Y 1 ; % > K +.a n o , A + Z 4 Y ^ % 8 ",
"0  .T &.w $ - @ p 6 * m & ; $ : A ! 8 o 9 { ) P 2 9 i a ] T a E > B ! 9 l E o ) i l O d ; U u d v K +.>.1.0 l , u # & - b O P w ",
">.S %.] n % & @ x ' I 6 @ # U A , K V 5 n 9 P +.+.2 V W S S ..i > % , 8 o B ^ $ ! E > U # u h d r #.>.o.O.O.W 2 $ : d % O i t z ",
"T X.D ] +.h + 6 _ _ -.L * ( 1 ^ o o E 2 9 2 w t w 7 { 0  .T a 9 , % y d A : y % : d e + @ - Y A 9  .D *.2.D ] w +.{ 7 i W J T T ",
"z O.=...) ; 3 _ . . -.I * m # e v O , , r l +.l B B +.$. ...2 % y h C = & H A : H # 4 ( @ c H % 9 T D ;.;.D  .5 ~ a n z %.%. .0 ",
"[ >.T t ) : G I ' I } } x f k - A $ % O o K 8 O % B ) &.$.#.B H # 4 q * Z ( - b u 4 f m @ c C d o &.j D 3.%.S F #.[ ..T 1.1.T >.",
">.z a g +.B + 3 @ Z 3 p q @ 4 = & : > 2 w E 7 P K O O P 2 $ C c < I } R < * @ k = k G G G 4 e > o [ D | S J o.0 t .. .0 [ W $. .",
" .[ g g #.2 H k # Y U b & = # + + H v { n { E ~ #.7 d > : - Z < 4.. . _ _ L < < @ c G * G - d , O / j =.J J 1.] t 0 $.F 5 #.W J ",
"..t w +.+.E ; & Y h y $ A & u C - H A , P i 8 l ~ o y h u m x 4.. . . . . :.} ` 6 q q p Q C > O o t S j O. .J >.z o. .z 5 w 5 t ",
"g ~ i V r , d ; O o o o : b y ^ b - + U % $ O { i ! h e 1 q I :.. . . . . . . } s x < * + : o 7 ) [ o.=.| ..g F ..]  .z a { P g ",
"V 9 l V K o r r #.&.&.a r ! O , d b = 4 k = 1 v ! A & 1 1 G x I :.. . . . 4._ L x 6 Q # u $ r E i a T o.>.w O P 0 O.S ] F i 8 P ",
"l V l 9 P E V z T T z W g 5 g +.7 % 1 4 @ c ( - C C = # - k q x 4.. :.. . _ 6 q q q 4 e % r 2 i w n &.&.w , > E F =.D %.z ~ 9 E ",
"V ~ 9 ) 5 5 T j j O.0 ....z J $.+.o $ e & # + Z ( # = Z @ k p _ . -.` _ 4.6 @ Q G G - O E E a >.[ F F ~ > U h O { ] %.o.z ~ 8 8 ",
"v $ O 9 t ..=.,.,.j O.X.X.1. .] t l E ! d C 1 + Z @ G * * 3 s -.-.x * x L p G * < @ Y ! E w $.O.T t ~ $ H & ; % , 5 J ] F P 7 O ",
"H # b $ { $.O.| <.| j j 3.%.T ] 0 n { 2 ! : U U # 3 R 6 p 3 * x s 3 * L ' p < s < c Y y r a J O.] z i $ ; A B % h E [ ..#.7 , % ",
"& + 1 e O &.T S j j j 2.M <.T z >.W i O % % % : C c q ' L * f @ * * 6 _ -.s s x G + H H h l / 0 o.1.t { r ! B : u ^ 9 V 2 O ^ Y ",
"# = 4 # : o / %.D ,.;.X N ,.T t 0 W 9 ; & u ; 1 + 4 f x s 3 3 * < q s -.I < < @ + 1 b u $ ~ F W ..o.z g o B $ ; - + b v B d A 1 ",
"c * q ( + e 5 X.*.X X X N D z g F a 7 ; H e e C = + = G q Z Q ` 6 < 6 x 6 * @ # y > ! 2 a z ..0 >.J t ~ $ e y H k 3 m U ; H # k ",
"p s q = = b 9 ] ,.M X N ,.S / i V g 2 $ A % % % ; H & c f @ f R * m * q * q Q & v 9 #.W 0 0 0 >.S  .a 2 : & u - Q < 6 @ k c * R ",
"< * G m = e O n =.M @.*.| J ~ E 9 5 9 o r 7 P 2 r % : - 4 ( f Q f @ 3 3 Q * f - ^ l a / &.t #.a [ W 5 7 e k @ ( @ 3 p I ` s s x ",
"q Z Z m = H $ ) $.3.3.S 0 a K O o 7 8 r r 8 / t 2 $ e & = = 4 c m @ 3 G m c # ; ! 2 { n #.5 V 9 ) 7 o , h 4 q 3 ( Z 6 } :.. } ` ",
"3 c k + - u $ w z O.S z F ~ r $ : h O O B l t t 8 : & # Z @ = + + m < G @ c & > 8 2 2 l i 9 2 K r > % ^ e & + = - f s ' :.. . ' ",
"@ + & U ; e ! F  .] W 5 g a 7 $ ; d v ! P ~ g ~ $ # # - = @ Z # # f * Z Q * k u d $ % > v E ) 8 B y ^ ^ e U e Y u @ R L } -.-.L ",
"4 1 e h ; ^ w ] | S W 5 / g 7 > d $ O E w +.w 2 A = 4 # 4 c @ Z + k f Z G < p m & b u e ; $ o B A : % B $ v $ % ^ 1 Z < s R * 3 ",
"H ; e y % o t o.| =...&.z 5 K v A : , ) ~ 5 n K ; = @ @ Q q q G # C - 4 3 q 6 * + & & & & U h : U y B 2 { ~ 9 B , A - k @ 4 + - ",
"h $ > > 7 a $.] =.S / / t n l O y e % 2 { P l r ; + 3 p s ' I * = H u + f q R q c Z Z 4 = + - ; $ O o 5 &.>.0 n P $ : u C U ; e ",
"% , r 8 n [ 0 o.| S t { l { ~ 9 ! v , r 8 E P E ; - @ s 4.. -.p m - - # c * p 6 6 < f ( + 4 ( U $ 2 5 &.o.j j ] a K $ ^ > r O $ ",
"O > y O ~ V #.J <.j J +.o 2 5 ) o r o 8 w V i 9 > : - 3 ` } L < 3 = # # c @ q L } } x f 4 4 + : ! n 0 O.<.,.@.j z l r o E n i O ",
"$ y Y ; B O 2 0 D ,.| >.i w F i r ! 8 +.>...n ~ 8 > y C = c c m 3 Z ( + + @ 3 s _ :._ < f k u > 8 w 0 <.*.;.N ;. .+.V { i g P ^ "
};
