/* XPM */
static char *e0c9214afc864d7db25098f071eed457[] = {
/* columns rows colors chars-per-pixel */
"64 64 177 2 ",
"   c None",
".  c #061E31",
"X  c #091F31",
"o  c #0B2435",
"O  c #0F2937",
"+  c #0D2738",
"@  c #0D293A",
"#  c #112D3B",
"$  c #182C39",
"%  c #0E313D",
"&  c #13333D",
"*  c #1C303A",
"=  c #20353F",
"-  c #1C403C",
";  c #153641",
":  c #143A43",
">  c #193D45",
",  c #293740",
"<  c #213C43",
"1  c #323A41",
"2  c #164047",
"3  c #1B4247",
"4  c #1C4349",
"5  c #13484B",
"6  c #1E4B57",
"7  c #1F5159",
"8  c #2E4044",
"9  c #254649",
"0  c #2B4448",
"q  c #204A4D",
"w  c #29494D",
"e  c #314548",
"r  c #334A4B",
"t  c #3D4B4A",
"y  c #304840",
"u  c #26524F",
"i  c #2A544D",
"p  c #2D5D47",
"a  c #38514E",
"s  c #234D51",
"d  c #265156",
"f  c #295957",
"g  c #29555A",
"h  c #2C5A5D",
"j  c #3E5351",
"k  c #305E5A",
"l  c #355755",
"z  c #366849",
"x  c #386A45",
"c  c #2C6557",
"v  c #396F51",
"b  c #396B5D",
"n  c #33695C",
"m  c #3F7957",
"M  c #3D725C",
"N  c #38794D",
"B  c #245260",
"V  c #2E5C64",
"C  c #315E66",
"Z  c #346466",
"A  c #396062",
"S  c #366965",
"D  c #396D64",
"F  c #346469",
"G  c #37696B",
"H  c #396B6C",
"J  c #3C7163",
"K  c #3E7268",
"L  c #3A6E71",
"P  c #464F4C",
"I  c #4C4F4A",
"U  c #524D4C",
"Y  c #4C524E",
"T  c #53534D",
"R  c #59564E",
"E  c #515F4E",
"W  c #435C5B",
"Q  c #485B58",
"!  c #505550",
"~  c #585B51",
"^  c #546D4D",
"/  c #42744D",
"(  c #437F4D",
")  c #52744E",
"_  c #48615E",
"`  c #576851",
"'  c #5F6151",
"]  c #437D5D",
"[  c #567850",
"{  c #5A735E",
"}  c #446761",
"|  c #447C63",
" . c #406570",
".. c #437471",
"X. c #54757D",
"o. c #468A45",
"O. c #4D914A",
"+. c #4A9744",
"@. c #51964D",
"#. c #539C4F",
"$. c #589F4F",
"%. c #478552",
"&. c #4F8550",
"*. c #46845D",
"=. c #4A8758",
"-. c #528950",
";. c #4F9155",
":. c #519451",
">. c #589951",
",. c #589A5E",
"<. c #5DA752",
"1. c #5CA259",
"2. c #61A85F",
"3. c #4B8763",
"4. c #4A8369",
"5. c #56896E",
"6. c #5E9F6E",
"7. c #539266",
"8. c #4D8473",
"9. c #649271",
"0. c #67AF66",
"q. c #63A76A",
"w. c #6EB96A",
"e. c #67AA76",
"r. c #75BC76",
"t. c #71B97D",
"y. c #74AC6F",
"u. c #76C273",
"i. c #77C07D",
"p. c #7AC779",
"a. c #7ECB7F",
"s. c #5E8D85",
"d. c #678785",
"f. c #71908D",
"g. c #6AAF81",
"h. c #66A582",
"j. c #6DB484",
"k. c #7AC382",
"l. c #8FBD85",
"z. c #9CB49D",
"x. c #92B192",
"c. c #90BE92",
"v. c #A3B6A6",
"b. c #AABCB2",
"n. c #89D68C",
"m. c #80D688",
"M. c #8DD893",
"N. c #A5C697",
"B. c #A6D69B",
"V. c #8CE694",
"C. c #94E699",
"Z. c #9AEC9E",
"A. c #BCD5AE",
"S. c #9CEFA2",
"D. c #9FF3A1",
"F. c #A4ECA6",
"G. c #A4E7A4",
"H. c #A4F8A6",
"J. c #ABFFA7",
"K. c #ABF3A9",
"L. c #AAFBAC",
"P. c #A3F5A7",
"I. c #B4F2AE",
"U. c #B8FEB4",
"Y. c #C1EDB9",
"T. c #C4F9BA",
"R. c #CEEFC2",
"E. c #DBEFC9",
"W. c #D4F5C7",
"Q. c #EDEFD4",
"!. c #E7F2D4",
"~. c #F5F3DD",
"^. c #FFF6E5",
"/. c #FFF7EA",
"(. c #FFFDEF",
"). c #FFFFF3",
"_. c #FFFFFB",
/* pixels */
"                                                        o o   o o                                                               ",
"                                      o o o         o + @ o o o + @ o                                                           ",
"        o o o # o                     o @ @ o     o @ o o o o o o o + @ o             o o o o             o o o                 ",
"        + o O 3 o o                 o + o o o o o + o o o & & & # O o # > @ o o     o @ o o o @ #         o @ @ o o o           ",
"        o o o o +                 o @ o o o o o o o o o O > 4 3 4 3 o o # o o o # & ; O o o o o # @ &       o o o @ @           ",
"            o @ o       o o o o O + o o o o o o o o o O ; 4 4 4 4 w # o + # ; 3 g q g s > > ; ; & o 3 j < & O & # o o           ",
"                          o @ + o o o O o o o # ; & ; 4 4 4 4 4 3 9 r > 3 4 4 4 3 4 3 4 4 4 4 4 t 0 3 w 0 ; O # O o + o         ",
"                          o o o o o # ; & o o > q 4 4 4 4 4 4 4 4 3 3 4 4 4 4 4 4 3 4 s 3 4 4 4 3 4 4 3 3 o o o o o o @ o       ",
"                        o @ X o o o # ; ; o # ; & 4 4 4 4 4 4 4 4 4 3 4 4 4 4 4 4 4 4 4 4 4 4 4 4 4 3 9 > + o o O o o o o       ",
"          o o           @ o ; i o o o o o o o o o > 4 4 4 4 4 4 4 4 4 4 4 4 4 4 > 3 4 4 3 4 9 q b > 3 r < % = ; ; o o o o o     ",
"                      o @ o ; u o o o o o o o o o : 4 4 4 4 4 4 4 4 4 4 4 3 4 s 4 4 4 4 3 4 4 3 9 4 3 4 t 0 r q ; o + @ o       ",
"                      o + o o o o o & > ; o X o o o 3 4 4 4 4 4 4 4 4 4 4 4 3 : d.k : 4 4 3 4 3 9 4 4 3 4 r 9 2 O o o o o       ",
"              o o o o   o o o o o > d s V h # o o o O > 4 4 4 4 4 3 4 4 3 4 4 3 q 4 3 4 q 3 4 4 3 4 4 4 3 r < @ o o             ",
"            o @ o + o o o o o o 4 f h Z G H H : o # ; ; ; > 4 4 3 4 3 d d 4 4 4 > 3 3 4 3 4 4 4 4 4 4 4 4 3 & O o o   @ @       ",
"            o + o o # # o o o > H F Z Z Z Z G s & ; > 4 > ; 4 3 4 d > > 3 4 4 4 > s b > 4 4 4 4 4 4 4 4 4 4 ; o o o @ o @       ",
"              @ o ; 3 o o O ; Z G Z Z Z Z C | ( ; > 3 3 4 4 3 4 Z d # ; o ; 4 4 4 4 4 3 4 4 4 4 4 4 4 3 4 q & o o o o o o       ",
"              o ; G Z 4 o # ; V F Z Z D Z C J u.7.4 > : > > : g H G q O o X ; 3 2 9 t r 3 3 4 4 3 4 3 q s ; o o o o o o o o     ",
"                d g F H V 4 q M Z Z %.] Z Z C J >.0.r.6.v k i d F F g 4 s > o # ; o & < 4 3 4 3 4 4 w t     o + + o o + o       ",
"              : 4 V F Z F C 4.e.V K 7.V Z Z Z C C G 3.| F K ] M ] Z g 4 4 s d > & & o & 4 4 3 4 d ; ;     o o o o o o @ o       ",
"            X # s V Z Z Z Z F Z Z S h.7 V C Z Z Z Z V V V C Z Z S F h 3 3 > d 4 # & o # > 4 3 q 4 X o               o @ o       ",
"          o o o d g Z Z Z Z Z Z 7 f.(.f.h c f V V V C Z 3.G V Z F H g > > 4 s O o o O # ; 4 4 4 > o o o             o o o       ",
"          o o o 3 F F Z J S Z h d.(.(.(.!.A.l.@.]  .V %.u.r.h.] g d Z s 4 s g o o O - o > 4 4 4 4 ; o o                         ",
"          @ # ; > s Z Z Z J Z 7 v.).^.^./.).(.~.Z.Y.r.1.@.@.<.2.4 : s u b > s ; O + o o o > 4 4 4 # o o                         ",
"        o + & > 3 q Z Z Z Z V 5 z.).^./.^.^./.(.R.V.D.M.2.O.O.i.C : > > > 4 3 4 ; # o o o o > > # o + o                         ",
"    o @ o o o > 4 Z F Z Z V 8.z.^././.!.^././.(.R.V.Z.P.r.O.o.N.s.7 6 2 > 2 9 e o o ; # o o # # O & & #     o O         o o @ o ",
"  o @ # o o o 4 4 F F D Z Z I.W.~./.Q.Y.R.F.T.T.K.Z.Z.S.0.O.o.r.L.c.c M f w 4 # o - o - o O # 3 4 4 & & @ o # = o o @ @ @ + o @ ",
"o o + o o o o > 4 V F S Z C | m.Z.G.Z.F.D.m.g.j.k.a.1.$.@.%.( a.Z.T.B.+.*.g 9 8 o o o o o & > 4 4 4 # ; & o o o o o o o o o o o ",
"  o o o o o o o ; 4 G F Z C 6 x.K.V.n.p.,.G B : > k S Z Z k k.Z.V.W._.A.c 3 3 r & # o o o & > : 4 4 ; d # o o o o o o o o o     ",
"  o o o o o o o o 3 g g ] m f b.K.S.u.o.Z 4 # 3 2 w W C B j.D.G.~./.(._.F : 3 3 > ; # o o > s } 2 : : 4 9 # o X o + o o + +     ",
"  o @ o o o # o o # @ - @.1.M.Y.Z.H.w.k 7 > o ; > : r C g.D.C.~./.^.(.N.a 3 3 4 & o o o o 4 s h < I t 4 9 t e = & # @ ; @       ",
"    o @ o o o o o o o z @.p.L.D.C.y.z ; & & o O # 3 m ;.Z.Z.G./.^.(.Q.N I 4 3 r o o o o o & : > T R R r 2 3 9 w     O           ",
"      @ o o # - X # 3 / $.1.n.n.` U , o & O o + > :.@.w.Z.V.W./.^.).l.x U 4 3 r 3 ; # o X o : Y R T T t 2 2 4 &           o o   ",
"      o o # o o o > 4 | J m O.O.T 8 o o o o o & f 0.@.a.S.C.G./.(.Q.+.^ t 2 3 3 4 : % * $ < r R T T T T Y t w                   ",
"      o o o o o o 3 h F Z Z :.$.v X o & o & O > f :.O.n.I.C.V.E._.l.o.T e 2 4 4 2 > t R R T Y T T T T T Y j >                   ",
"        o @ o o o 3 V F D D :.$.z X O & o & # > f :.1.C.Z.C.C.F.E.$.^ t 2 r 0 : % P R T T T T Y A A Q t : ; >                   ",
"          @ o o o > Z J Z D ;.<.p X o o O X o : H O.0.Z.C.C.C.U.c.x 0 2 d > o o 0 R T T T T E M J Z G g # o ;                   ",
"        o @ o o o > Z F Z Z ] >.y X o o ; l X o f O.u.S.C.C.H.z.> : 2 d 4 o o X 1 R T T T A D ] Z Z F h > o @ o > # # &         ",
"      o o o o o X 4 G Z Z Z *.[ 1 @ o o o O o o o ( p.S.C.D.g.@ : 4 4 q o o o X , R T T A F Z Z Z Z F Z 3 & o o @ o + @ o       ",
"      @ + o o o O d G Z Z Z K / > ; X i & o o o o k p.P.Z.L.5.@ 4 4 4 3 # o # @ # T T W F Z Z Z D H K Z o o o o o o o o @       ",
"      @ o o o # 4 F Z Z q.;.Z u : # o # o o o X o V 8.C.V.K.v.% 3 4 3 3 4 > ; > : t R W F Z Z ] %.s v ..d X o o o o o o + o     ",
"    o @ o o & > 4 Z Z *.w.$.z ; 4 # # ; # o o # o ; V D @.>.B.l : 3 9 0 4 5 : & ; o t Q F Z S K 3 o o s : o o o o o o o o @ o   ",
"    o @ o # ; > 4 Z Z b 6.w.( 3 3 q p 4 ; o O - X X w Z J n 4.' 3 2 r t P t 0 : & X % w Z F F : X o o X o O o # o o o o o o o   ",
"    o @ o # ; 3 4 Z G C L p.<.m 2 3 > q ; o o & # o t _ Z Z Q P 2 9 T T T T R P 2 @ # d V F J o o o - O o $ o O o o o o o o     ",
"      o @ o ; 4 3 d G F C v z 4 o o o # : o o # o o I Z Z D / > 3 T T E [ &.:.>./ # & Z F Z 3.i X o # O o o @ o o o o o @ o     ",
"        o o & q 4 ; # # > # . o o o     # @ o o o * Q F Z H c : r R T T :.#.O.#.@.% : s Z Z S K 4 O   o o o o o o o o o @ o     ",
"        o o o o o .                     @ # $ o X 1 _ F F ] s : t R U ) #.O.w.C.Z.6.% : e.*.C F L d     o o o o o o o o @       ",
"                                o o o o & # O o # U W F F u > 3 0 T U ) @.2.F.H.D.J.=.g.J.| V Z L F     o @ o o o o o o o       ",
"                                o @ + @ @ X * o 8 R ! F l > 2 3 3 P T E O.p.H.i.J H M.J.e.V Z Z L s     o o o O * o o o + o     ",
"                                o @ o o O * o X = R R Q W Y a 3 3 3 P ` @.2.t.Z X.B Z ,.Z Z Z Z H > X o @ o o o o o o o o @     ",
"                                @ o o X 8 { X o @ < t I ! T _ d > 2 e ^ #.#.| Z ..K 9.h Z Z F L h o o o @ o o o o o o o o @ o   ",
"                              o + # & o o o o o ; ; : r R T ~ a 2 3 t T -.#.=.C V J 5.C Z G G d O o     + o o o o o o + @ o     ",
"                              o o ; ; o o o & O # # # + < P j 4 3 3 P T ^ @.=.J F ..V Z G g # X o o     o o o o o o + o         ",
"                            o o + + + o o o & O o o o # % ; 3 3 3 9 U ) :.#.=.J F ..Z F F O X o o     @ o $ O o o o @           ",
"                            o o @ o o o o o o o o o o o ; ; > 3 2 t ~ :.$.:.*.F F F H H s O o + o   o + o $ O o o + @           ",
"                                o @ + o o o o + o o o & 4 4 # : 9 ! } ] &.k ; ; 4 4 ; 4 4 # o @ o   + + o o o o + o o           ",
"                                    o o o o # ; # O ; 4 4 4 > 2 t ~ W 9 : @ X X X o o o O o o o +     @ o o o @ o               ",
"                                      o + o & 3 4 & > 4 4 3 r r l Y = o O > o O * # O o o o o o @       o o @ @                 ",
"                    o o             o o o # 4 4 4 4 4 4 3 4 < O & o o o & 9 o + o ; O o o ; O o +       + @ o o                 ",
"                      o                 o # 3 > # ; 4 4 4 3 ; o o o o o o X o o o @ @ o o o o @ o     o o o           o o       ",
"                                          o o o o o & 3 & o o o o o o + @ @ o       o = # o + o                     o o o       ",
"                                        o @ o @ @ @ @ o o o o o o o o o o             o o o @ o                                 ",
"                                        o o o o o     o   o @ o o + @ o                   o o o                                 ",
"                                    o                       o @ @ o                                                             ",
"                                    o                         o o                                                               "
};
