/* XPM */
static char *_f071a2a27074484943778313a8ab3e7[] = {
/* columns rows colors chars-per-pixel */
"64 64 206 2 ",
"   c None",
".  c #011D31",
"X  c #032335",
"o  c #0C2535",
"O  c #0D2738",
"+  c #0D293B",
"@  c #132635",
"#  c #152934",
"$  c #1B2C33",
"%  c #122A39",
"&  c #192D39",
"*  c #1D2737",
"=  c #2E272F",
"-  c #29282E",
";  c #39282D",
":  c #242E34",
">  c #282E33",
",  c #212D39",
"<  c #292C3C",
"1  c #322C32",
"2  c #332E3C",
"3  c #3C2F3B",
"4  c #392A35",
"5  c #233032",
"6  c #2B3134",
"7  c #253038",
"8  c #2B3339",
"9  c #313435",
"0  c #3E3134",
"q  c #353039",
"w  c #2D1A24",
"e  c #7F271A",
"r  c #4A292E",
"t  c #5A2A2B",
"y  c #56312F",
"u  c #442C30",
"i  c #462E3B",
"p  c #562B39",
"a  c #443130",
"s  c #4E3132",
"d  c #49343D",
"f  c #5A3237",
"g  c #573238",
"h  c #6F2C2B",
"j  c #7B2D24",
"k  c #65302E",
"l  c #7E3126",
"z  c #7B322D",
"x  c #622D3E",
"c  c #6C2C33",
"v  c #722F32",
"b  c #64323E",
"n  c #6E313D",
"m  c #663435",
"M  c #713235",
"N  c #793335",
"B  c #74323B",
"V  c #7A3339",
"C  c #4A183B",
"Z  c #112E40",
"A  c #3E2D42",
"S  c #312A41",
"D  c #202641",
"F  c #442E42",
"G  c #4D2C44",
"H  c #4D2B4B",
"J  c #522D47",
"K  c #552D4C",
"L  c #5B2D4B",
"P  c #4B3043",
"I  c #523244",
"U  c #573748",
"Y  c #5B3548",
"T  c #632E44",
"R  c #662E4D",
"E  c #692F4F",
"W  c #6C3143",
"Q  c #753144",
"!  c #7D3443",
"~  c #7A3B45",
"^  c #6F3050",
"/  c #74514B",
"(  c #8C2F29",
")  c #842E26",
"_  c #853329",
"`  c #8A352C",
"'  c #92362C",
"]  c #96382A",
"[  c #99382F",
"{  c #833532",
"}  c #8C3530",
"|  c #8E3932",
" . c #803338",
".. c #8F3A3A",
"X. c #953935",
"o. c #9B3C39",
"O. c #993537",
"+. c #A13D3B",
"@. c #AA3F3D",
"#. c #A03B31",
"$. c #9B4438",
"%. c #8A4B39",
"&. c #A3403D",
"*. c #A44D3E",
"=. c #B4533E",
"-. c #833744",
";. c #893747",
":. c #863A4B",
">. c #993945",
",. c #893D55",
"<. c #A03F4A",
"1. c #AE3D45",
"2. c #9A4348",
"3. c #924251",
"4. c #904D50",
"5. c #AB4244",
"6. c #A84448",
"7. c #B34442",
"8. c #B24249",
"9. c #BA474C",
"0. c #B4494C",
"q. c #BC4B4D",
"w. c #B85747",
"e. c #AA4358",
"r. c #BD4951",
"t. c #A05943",
"y. c #B36C4D",
"u. c #B36D71",
"i. c #8B6B5B",
"p. c #C24B4D",
"a. c #C0434F",
"s. c #C54C54",
"d. c #CE4D55",
"f. c #CC475C",
"g. c #CF4E5C",
"h. c #C64756",
"j. c #D64E5B",
"k. c #C75555",
"l. c #D1535D",
"z. c #D9545E",
"x. c #D55C5F",
"c. c #D25A52",
"v. c #CA6A56",
"b. c #D4645C",
"n. c #D66B59",
"m. c #CD7B54",
"M. c #C57755",
"N. c #D67957",
"B. c #E4725F",
"V. c #D54E60",
"C. c #D55461",
"Z. c #DA5564",
"A. c #E15563",
"S. c #E75C65",
"D. c #D96461",
"F. c #DC6B62",
"G. c #DD7562",
"H. c #D06F73",
"J. c #E06164",
"K. c #E26C63",
"L. c #E87566",
"P. c #E17D62",
"I. c #EB7D63",
"U. c #E27C77",
"Y. c #DA8459",
"T. c #E2825A",
"R. c #E8935C",
"E. c #F7955C",
"W. c #D88062",
"Q. c #E38464",
"!. c #E58A64",
"~. c #EC8668",
"^. c #EC8B65",
"/. c #F2896A",
"(. c #E99564",
"). c #EB9B67",
"_. c #EF9268",
"`. c #ED9E6A",
"'. c #F39D64",
"]. c #F09B6A",
"[. c #FD9468",
"{. c #EB9179",
"}. c #EDA368",
"|. c #F3A26C",
" X c #FCA56A",
".X c #F7A96D",
"XX c #EFA175",
"oX c #EFA27B",
"OX c #F5A879",
"+X c #DF7780",
"@X c #F1989B",
"#X c #E48986",
"$X c #ECA288",
"%X c #F1AA82",
"&X c #F4B18B",
"*X c #F6B697",
"=X c #F9BDA8",
"-X c #FCA6A1",
";X c #FAC2B4",
":X c #FDC8B7",
">X c #FFD4BB",
",X c #FDCCC3",
"<X c #FFD2C5",
"1X c #FFD3CE",
"2X c #FFD5D3",
"3X c #FFDCD5",
/* pixels */
"                                                                                                                                ",
"                                                o O o + O O O O + o o     + o + O O                                             ",
"                                            o O O + O o o o o o o + + o o o   O O + + o                                         ",
"                                          O + O o o o O # # O O # # : , : # + o o o O + o                                       ",
"                              O Z O   o + O O o O # : 6 6 F 3 6 6 6 6 6 6 6 $ # & $     o O                                     ",
"                            O + O   o + O o o O 5 6 : : 7 F A : 5 6 6 q P 6 6 6 6 9 & X                                         ",
"                          o + O o o + O o o # 3 3 2 a a b W W b 0 2 5 5 q L 3 3 6 6 6 :                                         ",
"                          + O o O O o o O 5 f K L ! #.#.] ' ' ] ' V m < 5 1 J F 3 6 > 6 7                                       ",
"                        o O o O O O o o $ y T :.l.z.9.e.! M M N M n Q W H : 6 2 3 6 6 > 6 8     o + O                           ",
"                            o o O o @ : a T ;.7.&.Q p G v V n K L B _ ` { ! J i $ 5 3 3 > 9 7   o + + O                         ",
"                          O + @ $ O : 5 M V ' v p ! &.+.+.d.z.l.C.g.:.z { r.@.2.0 : 3 P 2 5 9 $   O O + o                       ",
"                      o   o # 9 $ # : 0 V 2.z :.9.d.C.C.C.C.l.z.7.&.+.5.e.{ ` 9.g.-.L J 2 $ : % o   o O o                       ",
"                      Z O O > 6 $ 2 8 y @.o.6.r.@.>.Q x T K n V N v M ' &.5.l l | 7.n K R F # o # o o o +                       ",
"                    9 , o : 6 5 G E F z 7.o.9.w.Q.J.d.9.| c M B V  .B T z 5.s.o.l _ ` T K L 3 o # # O o O o                     ",
"                    : O $ 6 5 3 R J 0 ` &._ s.oX<X2X&XK.V.7.' _ ` ` ` { } g.J..XN.` _ } L L L 6 # : 6 $                         ",
"                    o o 6 6 5 3 E 2 f ' j 8.{.3X1X3X>XT.g.8.` 8.o.` _ _ X.V.C.G..XM.v '  .K L 3 # 6 6 8 @                       ",
"                    Z # : 6 # q F a V M >.B.>X3X1X1XH.R L J L E N 6.7.} X.9.g.V.P.|.-.v ' B K 6 6 6 6 6 8                       ",
"                  o & 9 : o # 6 $ m B v c.%X;X*X3XH.C H L L L L K J :.X._ 5.&.r.C.K.r.H { } 3 5 6 6 6 6 8 o                     ",
"            O o   % 6 6 $ X : 5 d V x >.^.*XXX'.G.T H L L L L L L K H T z p.l._ 5.r.9.T B ] g 7 6 : $ 6 6 &                     ",
"            O O o O 6 6 o O 6 2 W B L k.|.*XR.~.0.G K L E W N V N B R K K n g.r.j _ _ V B '  .G 3 6 $ 6 6 7 o                   ",
"            + o O # 6 : o $ 6 F W n c n.*X%X!.K.-.H Q 9.2.u o O o : k B L H -.A.r.d.` z N B } G q 3 5 # 6 6 O o O               ",
"          o O o O # 9 $ o 5 6 K W v ! ^.XX`.`.k.z _ [ b X X o o o o X : M T L d.g.s.r.+.` V  .q 5 F 6 @ 6 6 % o o               ",
"          O o O o O : o # 6 K T n h &.XX`.(.|.w.( ` # X o O O O O O o X X f R <.z.5.C.0.&.z W F 5 P q $ : 6 & o o o             ",
"          O o o O @ : o O I ! B n <.n.=X`.`.^.r.' 1 X o O O O O O O O o X O ,.! z.o.s.s.&.{ K L 5 P F 5 $ 9 & o O o             ",
"          O o O O # @ o $ K W M +.A.`.#XP.].C.h.s X o o o o o O O O O O O X < -.s.5.9.l.9...T W 2 6 L : O : $ O O o             ",
"          O o O o o X X G V _ l &.C.D.d.K.v.d.>.X o O o o o O O O O O O O O X = 7.s.o.C.Z.&.M W 2 5 P 6 @ o O + o               ",
"            o o X X X 4 ` _ o.0.C.C.g.C.n.` d.f X O O O O O O O O O O O O O X o ..d.| C.8.o._ n H $ 3 6 # o o +                 ",
"          # O A t B 3.s.s.r.Z.A.l.g.g.g.X.j j.< X O O O O O O O O O O O O O o X m 9.} g.0.9._ W n m J 3 # o X o                 ",
"    X % L H k ( ( ( ' 8.9.9.0.0.` _ } +.X.9.0.o X X X X X X X X X X X X X . . X ; 1.*.v.P.X.@.,.x ] 1.X.z x = * . X o           ",
"    < L P s 6.p.M.m.m.M.0.8.8.8.8.w.Y./.J.S.3.X o O O O O O O O O O O O % Z Z o / ^._.D.h.q.S.2.z ~ 4.$.| ] '  .k p * X X       ",
"S F [ ' _ g.L.~.L.^..X.X|.^.K.S.r._ &.m.Q./.`.).).|.`.`.).).(.).).`.`.).OX;X@XP.~.D.f.l.!._.Q.D.F.Q.W.P.Q.b.f.g.S.B.5.o.U P u   ",
"H R W | p.A.K.l.D.g.b.b.F.L.y.o.&.5._ j ` $.b.K.K.w.b.K.B.`.'.).).G.D.b.w.=.&.7.J.^.P.R.&XC.g.C.V.g.j.V.V.Z.~./._. X[./.d.+.| @ ",
"    o 2 L b  .| ' ' ( ( O.k.b.9.+.| 8.5.o.+.+.V.j.( ( ' ' p.S.9.,.Q ;.[ ( p.N.m.m.Y.I.+X+Xa.+.&.o._ | +.9.p.d.4.M t m d $ o     ",
"            D , i n { _ _ l ' l.5.+.) +.z.~ >.~ P i a a s Y i I I 4 d 3 1 = = ; r r >.@XV.O.l _ _ ` ` _ _ z ; # o X .           ",
"              X X o O X s { v >.&.` N z 7.~ t t 1 s : X X X . o O O o X O O O u h > u.-XU.@.) | ! { V { a # X o + o             ",
"              O O o o X s R H ,.s._ L H } l.m o 1 @ O O o o O o O # o O o # O X w i.<X=X*XN.j o.6.z K b 6 # o + O               ",
"              o O O o X s  .H ,.p._ _ b p o.7.3 X o o o o o O O O o O O O o X . %.OX<X:X&X*X2.' ;.L L N : o , :                 ",
"              o + O O X u  .H ! 7._ X.@.r.{ 9.2.X o O O o o O O O O O O O o . : E.*X=X2X%X:Xu.e n T T _ o X , 6                 ",
"                O O O o $ N L b g.X.+.r.A.+._ +.U X O O O O O O O O O O O X . M. X;X*X,X&X=X&.j B { T N o o 7 :                 ",
"                o O O o o _ 0 x 9.o.&.s.Z.q.l ` m $ X O o O O O O O O O o . i. XoX<X,X;XOX$X( >.V _ ! g X O 9                   ",
"                  + O o X s 0 p +.} 5.C.l.C.o.7.3 ; o X o o o o o O O o X = ^.R.=X2X2X%X*XW.j 8.o.x B 3 o O 6 #                 ",
"                  + O O X > f a ` o.C.l.l.C.g.X.s.< ~ 2 X X o o O o X o r M.'.`.,X1X,XoX&Xv.` z.3.L n A o # 6 +                 ",
"              O o O O O o o f 8 v 7.Z.l.l.g.D.s.O.r.u >.~ F . X X O u y x m.'.:X2X2X=XR.].*.' s.K b g < X : : +                 ",
"            o + O o O O O o : 3 3 2.A.g.l.g.l.K.v.z.q.)  .U 3.m y r 1 @ r N.:X,X;X<X(.(._.o.@.! A 1 5 @ o %   o                 ",
"            O + O   o O O o O 6 : F v.D.g.G.b.f.V.G.].L.t.- @ X - 1 U h.H.;X;X*X3X{.n.`.!.7...K 2 5 2 # O O o O                 ",
"              o Z O o O O # o $ 6 $ t. Xl.l.G.Q.Q.l.!.|. XT.y.4.1.d.A.@X=XXX(.:XU.d.(.).A.;.L F $ F L $ O o o o                 ",
"                O     + O > : # 6 : p Y.].g.f.b.(.}.`.(.l.V.S.A.z.(.*X%XR.oXOXG.b.).}.J.e.K G 5 q R L # o o +                   ",
"                      o # > 6 : : : 4 | n.K.G.g.g.b.G.(.P.Q.l.G.!.(.R.(.*X*X`.(.`.}.L.f.L J 6 6 L R i o O O o                   ",
"                        & 6 6 6 6 5 2 z O.V.D.!.!.x.f.g.l.l.g.l.x.F.$X=X%XR.(.`.|.I.h.^ K q 5 3 R R * o                         ",
"                        o 8 6 6 3 F $ z _ 5.V.x.(.}.Q.P.x.l.l.l.g.`.*X`.(.|.(.D.w.;.L J q 5 5 I ^ 2 X O                         ",
"                        o % 6 5 3 E * 0 [ _ X.N.|.).).`.Q.P.Q.G.f.l.T.Q.~.N.$.) c H W a 5 6 6 F A X + o                         ",
"                        o + 8 6 3 R K @ { [ _ _ y.].|.`.!.F.l.Q.x.g.V.V.1._ j _ Q Q y 5 6 6 : O X O o                           ",
"                            # 6 6 G R F > z [ ` ) X.N./.P.l.C.x.C.Z.s.X.l } 7.8.2.a : 6 6 $ o o o +                             ",
"                              > 8 6 L ^ A X s ' } _ _ 1.V.l.g.V.s.+.` _ ` [ 3.I $ : : $ O O @ o O o o o                         ",
"                                : 8 q J d $ X o F E L L R ' ' ' ` _ ` ' { i $ $ $ # # # # # O O O O O +                         ",
"                                  : 8 6 > 6 O X O , 2 3 2 0 f x b b W s 1 : $ $ : J 3 6 $ o o O o O + o                         ",
"                                    # : 6 6 # o o X o 5 5 2 2 2 2 2 2 2 2 6 6 G I P 6 : o O O O O + O                           ",
"                                  o o o # $ & o O O o o $ L R R R R R E L 5 6 6 6 6 $ o O + O O O O                             ",
"                                  o Z O O O o + O o O o o O < H P I I I q 6 6 : : @ o O O o o + +                               ",
"                                    o + + o   o O + O o O o o o o # # O # # # O o o + o     O + o                               ",
"                                        o + Z O   o + O O o O o o o o o o o o o + O o         o                                 ",
"                                                    o O O + + + O O O O O + O O #                                               ",
"                                                          O o o O o o O O o                                                     ",
"                                                                                                                                "
};
