/* XPM */
static char *_a4c2a2b5c734298d7bde6f07bded358Ts8UzzwlcV8au05i[] = {
/* columns rows colors chars-per-pixel */
"64 64 66 1 ",
"  c None",
". c black",
"X c #010101",
"o c #020102",
"O c #010102",
"+ c #010001",
"@ c #020202",
"# c #030203",
"$ c #030405",
"% c #020203",
"& c #020304",
"* c #040304",
"= c #060406",
"- c #040507",
"; c #050609",
": c #080507",
"> c #060204",
", c #08080A",
"< c #090608",
"1 c #0C070A",
"2 c #0B0B0E",
"3 c #07090D",
"4 c #0D0A0D",
"5 c #100B0F",
"6 c #0F070C",
"7 c #080C12",
"8 c #11080E",
"9 c #100F13",
"0 c #140E13",
"q c #0B0D11",
"w c #0D0F15",
"e c #221C22",
"r c #0C121A",
"t c #1C0F17",
"y c #21101A",
"u c #171117",
"i c #1A1C24",
"p c #13151B",
"a c #131820",
"s c #160B11",
"d c #261721",
"f c #1D141B",
"g c #341B28",
"h c #17171D",
"j c #1C202A",
"k c #2B2932",
"l c #1A1A21",
"z c #25212A",
"x c #3D333E",
"c c #2B262C",
"v c #36232F",
"b c #301523",
"n c #23161E",
"m c #101924",
"M c #272F3D",
"N c #3A2734",
"B c #353947",
"V c #1E2634",
"C c #352F3E",
"Z c #221F29",
"A c #17212D",
"S c #403748",
"D c #3F4252",
"F c #302C3B",
"G c #262730",
"H c #423645",
/* pixels */
"....oo.....$X........%-.X.XXOOXoX>>=%.@-#+XXXXX++.XX...-M.@=XX..",
".....-c.....X........&;.XX..X.O...O@X..st@%XXXX.X......Oq.1x,...",
".....X,...3OX......X&o#..X..XX;o.X,..@&..$O%O.X.oX.........XX...",
".XX+F&....;O.......%2.+.X....oX..O..XX@2X%$%+XXO+..29........+..",
".&-$i&...........X......X>.....@$o..#%.h$.o..oo#X.<Ck.X.XX......",
"...r..............X...X.X:3V...@#oXX..X..<8.,#X@*X#..X...X.X....",
".......&%.z3..............,A..X......XX.@=1*$o*OX....X..........",
"...wr..zj.<oX:X........X.*1..&$....%oX..@@.o@.@X.X@.............",
"...ri..XX...XX..........XXX.&5..X#%@....@o.XX..X.Xo+..X..pO..*X.",
"...6b>.........X......X<XX.....X..+*<XOXXX...o.oXXo...+..r&.X1.X",
".O.t<X&........XXX.....*.....*#=X..o@X..Xo*o.X+X...............X",
".....o&...X+*..+OX.-$##...X.$-.&o$X...#.X......+oX+.$u.OX..X....",
"o*...XX..X..*.XX...jaX@..v2XOX..Xo.9p.%..+l9.:#y8X+.X#.....X$%XX",
"yv1=.....X.XXX........<X.:oX...XOXoeh>o.%Xiu.:#++..7$.......X%XX",
".+5:..#<.X.+.Xyy.X-.@...X..XO*O.X$X..6>.M2..X......OX...XX..<X..",
"...>1.Xo.oooXX1:.X$..+#.;O..X*O.o+..%..o=X.................:Z*.X",
".XX:6....XoX.Xo.1%*bg.XX......XX..O.........X..+.............XXX",
".....5<.....X@..<@X11..X$%=.o:O.XX&$XX#.@<..............%......X",
"XO...Nf3;#=X.O.@.XX.O#4X$.X.X*=&qO...X-O#@X........X......92.t5.",
"XX.X...mro=:<.+@O.$9=2v...OX.&;.$:X*..-<+..........O&.....-$.f5.",
"....X.%..,##*d5.XX.k5..X.04XX$-O3..#.X.::..@.o.w3...............",
".....;c.X%...d6+XXX.X68&;1@@X.-,...OX<X@=q@o.ss;%.OO..O...8n....",
"......@....%=.0x..@$X18XO.....X8=;OX..X.$o>...5...;r7.X..X5e.X.X",
".......X;..39$$3X%..o..@....@..>6;#>....Xa-.........O..%O.>.....",
"X...7$..X.%X=o+.&&X...*9..$$@oo1##.O.X14#Z-.X-.........3$.*#...&",
">...a3...#@&.XX.XXO...@+..-X.OXo.#6;X.X&X...O$oo..XX.........#+-",
".........oX*%O.X.=..@X.X.X+&;-%..,#=XX......XX.o..XX.....X...oX.",
"X.............#..&&*#XX..%X2moX=..OXXXX..#>..X.........<XX$1....",
"...........X...,..XXo..+j7...OO*...$$.X.XwB.....X......wo.4e....",
".XX....**..O...$...XX.-q-&....o*.y6X..*XO1;..XX....X.........nz.",
"#.XX@.#ft.X......X...,,;.....aH*#f4..X=X.#.o.X#.........X....tlg",
"X++X@.>o.O..@$.%O.oX&,o....X&;q.@.XooXX.+.XX#OX#X...X.XXX..XX..:",
"...X.@...XX..n=OX.,:oO.+.ObgO..X=*0:.#%.XX#.*1.X.....XX.XX...7q.",
".X...X.......e:..X...+X..:=>.#<&X%%$.o@%oo..+*........o....+*9o+",
"o...X...X...#..@%O++.O#OXX..Xo#.%.2h+..#o@.XX.X@......>X+s0>1c..",
"X..............@+.%XX.X&,.%....@X=4OOX#@...X...O.........dG....@",
"o.X..X..$O.XXX.+..X$&X.X+$Xo#X.X+o#X.Xo%X+o................X..XO",
"XXXX....%O...X.....*$+.X.,%X%&#XXo.X&X..XX@X...X.........X.oX.XX",
"X+@X...+.XOX..OOo...o#.&@...O%,$.#X@*.XX..@X..>1.....O1X.X..X...",
"....XXo%X..O..#5......*ooX.+X.0<22.OOXX..++...>1.X.&7O#X.@@&XXXX",
"X...+o>.X.....#8.:1-.o:X...XXX..#X.X+X-@..X@.o....XBC:X..XX,X.oX",
"X.XX+....+.....>8XO.=2.X&.XXXo8XX.XX..OOX+..X#+..O.*.@o.O&=.@.O@",
".XX.........XX.tg..Xt>.$X.+XX%>.....X.......X....X...X.+X.<o...o",
"+X+e0....XX..oo....O:....OXO.*...XX>+*XX..........X..XX.o.....+.",
"O.Xu4.O...o.XXO.....XX.2,$%X.XX..OXy>.o.X....>=..X+.XX..XX.@<+X<",
"=....XX..XX+.+..O+.+...00..........:h2.X+....<1..X+.....o#<X@.#9",
":..X..+X=X.XX...&OXXX....X..%o.7w4e.$;...............;m.XX.X.XX.",
".X.XXX.X$.X.+.7S>.6=..X..XXX&o.wa*2...X....XX..X;X.X.37+..XX....",
"....XoX...X+..;foX.+O..X..&@X@o......e4.....X+X$3X..#O.Xw;Oo..d5",
"....XX...+@#X...XX.XXX.X..X..+.X.....@+7O..XXX+..@.=e...,$.XX.u1",
"......&X...X.;,..XOX...@X+.w,..........%o=.XXOXX.=.XO.o#X.X.@@..",
"......rO.X..X$$X.XXX.X.@@X.u4X..........=t.XX%XX..;X.+oooX...XX.",
"...XX.....$p...#u...XX.o@OX..X........X....XXXX.XX:X..X..X..+...",
".......$$.;lX.Oos.X.X.X.XXXXX....V$o.......X@.%%X..X%..X..X..X+.",
"i......$$...@XX;2....X.X.X@...-$.A.kp....+..+XOXXX..O2&XX...X+.2",
",............X.-4......XX..+..&%.oip3....XX..XXX.4DX.,&.XOo....#",
"............X......X+...o8.......:k........X.XX..@6Xlq..XO......",
"...=#X2....X...O$+uO....#N%..:,X...oo>......XOX@X...2-..........",
"...@..%.XX....X..X#XX:+...X..90....#Xo.+.....XXX..Xo...q&...j4..",
">.......2,...........<X...+X...o*X....@@..&@...@..o6...-X...;%.4",
"5,...X......X............X.....$,.X@.XOXX-OX..X%.X+............<",
";$....X.....+..O.XX....XXX.........%XXo$&r%oX.@X.X....o$........",
".......3O..........-xo......+++.+..@O.X....XoX.X......=5......X.",
"o...yd.&X..........@pX....iq.#%..&*+..XO.X@X.#%X...X...........X"
};
