/* XPM */
static char *_58c6259f36848d49ef97160ddc6356b[] = {
/* columns rows colors chars-per-pixel */
"64 64 255 2 ",
"   c black",
".  c #364148",
"X  c #051822",
"o  c #08191B",
"O  c #0279A7",
"+  c #05151F",
"@  c #08191E",
"#  c #030318",
"$  c #0B4257",
"%  c #051A22",
"&  c #08455D",
"*  c #061923",
"=  c #0B1016",
"-  c #00ABFF",
";  c #071419",
":  c #061820",
">  c #006495",
",  c #061923",
"<  c #05141C",
"1  c #041D29",
"2  c #013655",
"3  c #041A22",
"4  c #026090",
"5  c #051923",
"6  c #003553",
"7  c #01689C",
"8  c #01314C",
"9  c #05141B",
"0  c #004A6F",
"q  c #061820",
"w  c #026798",
"e  c #006496",
"r  c #00304C",
"t  c #041921",
"y  c #003555",
"u  c #013C5B",
"i  c #B7E6FF",
"p  c #003655",
"a  c #006292",
"s  c None",
"d  c #051923",
"f  c #025E89",
"g  c #041923",
"h  c #041820",
"j  c #06171D",
"k  c #013B5B",
"l  c #005E99",
"z  c #04141C",
"x  c #00A5E7",
"c  c #05131C",
"v  c #041823",
"b  c #003454",
"n  c #041B23",
"m  c #061923",
"M  c #051922",
"N  c #031A25",
"B  c #04131B",
"V  c #015385",
"C  c #061219",
"Z  c #0179BD",
"A  c #05171F",
"S  c #012D46",
"D  c #061820",
"F  c #026198",
"G  c #006295",
"H  c #061822",
"J  c #006899",
"K  c #006291",
"L  c #00A7FA",
"P  c #006FAD",
"I  c #041A23",
"U  c #00A7FB",
"Y  c #02B0FF",
"T  c #08CBFF",
"R  c #041923",
"E  c #00A3E5",
"W  c #006390",
"Q  c #00ABFE",
"!  c #006191",
"~  c #060608",
"^  c #041822",
"/  c #006499",
"(  c #003858",
")  c #034768",
"_  c #0290DB",
"`  c #00A5FF",
"'  c #006C9C",
"]  c #041721",
"[  c #05171E",
"{  c #00608E",
"}  c #050B0E",
"|  c #0389CF",
" . c #056FB6",
".. c #003656",
"X. c #005B87",
"o. c #00A9FF",
"O. c #00324A",
"+. c #0487D0",
"@. c #017DBF",
"#. c #02263B",
"$. c #0072AA",
"%. c #00324F",
"&. c #0280C7",
"*. c #051E2E",
"=. c #005178",
"-. c #00A7FC",
";. c #006492",
":. c #032D44",
">. c #05161C",
",. c #005B8C",
"<. c #003256",
"1. c #0485CF",
"2. c #003353",
"3. c #003757",
"4. c #080000",
"5. c #0087CE",
"6. c #16A2EF",
"7. c #42CBFF",
"8. c #023853",
"9. c #0475B7",
"0. c #003655",
"q. c #027DC2",
"w. c #015987",
"e. c #00B7FF",
"r. c #006292",
"t. c #D3F1FF",
"y. c #00618F",
"u. c #032233",
"i. c #006798",
"p. c #031822",
"a. c #00B2FF",
"s. c #42ABE6",
"d. c #051923",
"f. c #005C86",
"g. c #0094E6",
"h. c #00517E",
"j. c #0378BB",
"k. c #00ADFF",
"l. c #01263B",
"z. c #67BBE5",
"x. c #00486D",
"c. c #00A7FE",
"v. c #005275",
"b. c #006697",
"n. c #00689E",
"m. c #024163",
"M. c #009CEE",
"N. c #2A81AC",
"B. c #047FC6",
"V. c #040708",
"C. c #3EC2FF",
"Z. c #005074",
"A. c DeepSkyBlue",
"S. c #003A57",
"D. c #0287D0",
"F. c #022639",
"G. c #0C9EEA",
"H. c #003555",
"J. c #003F60",
"K. c #56B8EE",
"L. c #0284CC",
"P. c #005983",
"I. c #003451",
"U. c #0471AD",
"Y. c #0077BD",
"T. c #006594",
"R. c #0588D4",
"E. c #02496C",
"W. c #005D87",
"Q. c #052C3D",
"!. c #041E2D",
"~. c #003251",
"^. c #006597",
"/. c #BAF1FF",
"(. c #025E95",
"). c #00B6FF",
"_. c #022E45",
"`. c #0597E4",
"'. c #003157",
"]. c #003C60",
"[. c #052330",
"{. c #006AAA",
"}. c #002E48",
"|. c #01A3F4",
" X c #C2EBFF",
".X c #05161E",
"XX c #003655",
"oX c #0074AF",
"OX c #016AA0",
"+X c #006290",
"@X c #62D7FF",
"#X c #003654",
"$X c #021F30",
"%X c #006494",
"&X c #003C71",
"*X c #00558D",
"=X c #0073AC",
"-X c #047EC0",
";X c #006998",
":X c #99E6FF",
">X c #005E8D",
",X c #042234",
"<X c #CAF4FF",
"1X c #004B6D",
"2X c #00D0FF",
"3X c #027DC2",
"4X c #0078B7",
"5X c #0EBBFF",
"6X c #061E29",
"7X c #57D3FF",
"8X c #060000",
"9X c #0584C8",
"0X c #1EAEFE",
"qX c #00E5FF",
"wX c #68D6FF",
"eX c #004D73",
"rX c #0069A8",
"tX c #034A6D",
"yX c #050404",
"uX c #60CCFF",
"iX c #04567D",
"pX c #0093DD",
"aX c #0069A0",
"sX c #02283B",
"dX c #EFF9FE",
"fX c #04D2FF",
"gX c #7FE0FF",
"hX c #006593",
"jX c #00AAFF",
"kX c #0494E0",
"lX c #0074AD",
"zX c #004367",
"xX c #003353",
"cX c #050000",
"vX c #00CDFF",
"bX c #0076B0",
"nX c #005883",
"mX c #0078B2",
"MX c #02547C",
"NX c #006DA5",
"BX c #032132",
"VX c #005283",
"CX c #042B42",
"ZX c #006194",
"AX c #00A5FB",
"SX c #0076B1",
"DX c #041822",
"FX c #006595",
"GX c #004163",
"HX c #005C85",
"JX c #08181F",
"KX c #28B5FF",
"LX c #9FE9FF",
"PX c #006A9E",
"IX c #067DC2",
/* pixels */
"                                                                                                                                ",
"                                                    5                                                                           ",
"                                                    m h                               d .                             d o       ",
"                                                    # , $                             DX@                           . ] *.      ",
"                                                      t 5                             H @                           : g &       ",
"                                                      @ d.c                           A #                         = I %         ",
"                                                        h sX                          ,X$                         * *           ",
"                              .           .               p #X                        ( $                       8 ,             ",
"                              C ;       4 ,.              0 (                         H.&                       b *.            ",
"    . D         y <.        4.) Q.      N.z.&X              y y                       b                       ]...              ",
"    . D         y <.        4.) Q.      N.z.&X              O p %                 : #.~.}.q .               @ 3.'.              ",
"                              C ;       4 ,.                  6 S.            o c X S m.r X 3 +             GX0.                ",
"                              .           .                   . r.4           ] X + 8 +XJ.% H R           $ y.$                 ",
"                                                                U.;.          n [     J     n t j R       hXT.                  ",
"                                                                  FXw   3 #           > O       j R [   W G                     ",
"                                                                  0 J 0 A o           > O           , = PXW                     ",
"                                                                    L.m.4..           > &           ~ 2 =X                      ",
"                                                                    N f T             >               f :.                      ",
"                                                                    V.u @.        E $.K =X`.        lXeXyX#                     ",
"                                                                  c I   > 4     l | &.f q.1.l     0 e   .Xn .                   ",
"                                                                  M o   4 +X    e O  .X.4 x > &   ;.{   @ M @                   ",
"                                                                  X       @.D.nX!     pX    w > kX1.      X =                   ",
"                                                                  g .     T e.^.      Q x     r.fX).      g $                   ",
"                                                                          % M.2X      o..     qXY w                             ",
"                                                                          U.IXU `     o.      a.b.HX                            ",
"                                                                        x D. .).AX  1X|.W.  U -.o B.9.    o 5                   ",
"                                                              N N         9X    U # n.- P 8 k.    R.T     o v c                 ",
"                                                              * *       O         x.|.5XY P.        $       < D                 ",
"                                                              ^ z       ;.&       P @Xt.gX&.o       G       < .X                ",
"                      j <                                     :.:.      y.      VXKX/.s <XC.G       K       O.CX                ",
"                      [.$X                                3 q %.3.6 a ! OX$.L L 5.7.s i s wXg.L L SXK a a ! 0.p 6 6 [ : q 3     ",
"                      XX6                                 I X u.2 k 7 i.Z P Y - - C.t.i t.uX- - e.Z f 7 7 i.2 2 k 2 X X 1 v     ",
"                      I.2.                                o + * 6X8 ' l / v.` ` P 7.s i s @Xq.E ` ' y.' ' l 2...8 8 + + + o     ",
"                      a w                                     : [       K       ].6.LXdX/.0Xh.      -X      d BX                ",
"                      Z.E.                                    * :       b.L.      / 7.:X7XrX        R.      d D                 ",
"                    } ) k %                                   : * &       -X    T O._ Y M.x.x             . j p.                ",
"                    B F w.>.                                  & v }     O ^.    Q   >X- e   o.x           o I $                 ",
"                  z 9 (.V 9 t                                   N @     & NX+.c.c.  8.g.W   -.k.v.{       + ,                   ",
"                + 9 1 {.F 1 B =                                 c         9.3XA..     jX      A.oX=.      # H                   ",
"                C X 2 _ 5.r X z                                 d.d       % - -.      Q O     `.e.{       ; v                   ",
"              ~ u.r *XK.s.V S !.=                               o M .     E - i.      Q O     w.- vX      , +                   ",
"        < l.u f.7 Z 6. Xi G.Y.7 X.( F.;                           X       a.| =.n.1.  oX  w j.! | bX$     n                     ",
"        < l.u f.7 Z 6. Xi G.Y.7 X.( F.;                           5 3   %XU     aXB.$.OX@.,.j.    P.ZX                          ",
"              ~ u.r *XK.s.V S !.=                                 @ ] 0 / &       +.&.q._ W.        e 0 #                       ",
"                C X 2 _ 5.r X z                                     8XtX+.           ./ 9.&         E MXcX                      ",
"                + 9 1 {.F 1 B =                                     4 f @             r.              iX=.                      ",
"                  z 9 (.V 9 t                                       4Xu V.            > O           h _.mXO                     ",
"                    B F w.>.                                      W G   M *.=         J O       . % ,   ;XT.                    ",
"                    } ) k %                                       e l   o 1 5         J O       t 1 ;   O e                     ",
"                      Z.E.                                      y h.      q JX5 ]     zX    p.< m ^       %X..                  ",
"                      a w                                     J.p @           5 , : #.~.}.q m < q           b #X                ",
"                      I.2.                                    S.6               . X S k r X ;               <.3.                ",
"                      XX6                                   8.b .                 + 8 H.8.%                   %.xX              ",
"                      [.$X                                  p O.                      u                       '.b               ",
"                      j <                                 3 %.                        _.$                       0.#.            ",
"                                                        # , =                         A #                         H @           ",
"                                                        * ^                           >.#                         n m           ",
"                                                      % v o                           R @                         . m h         ",
"                                                      p.:                             g #                           3 h         ",
"                                                    ; M                                                                         ",
"                                                    A ~                                                                         ",
"                                                  * g                                                                           ",
"                                                  ^ +                                                                           ",
"                                                                                                                                "
};
