/* XPM */
static char *_4f87a9d594c4cb8a3cd2e57229d8ff4cqoGElYjQ1jfUZaq[] = {
/* columns rows colors chars-per-pixel */
"64 64 212 2 ",
"   c None",
".  c #050D0A",
"X  c #03100B",
"o  c #05100D",
"O  c #06120C",
"+  c #05160F",
"@  c #09100A",
"#  c #070216",
"$  c #0E061D",
"%  c #10071E",
"&  c #051610",
"*  c #071811",
"=  c #021F13",
"-  c #041F15",
";  c #061E15",
":  c #072315",
">  c #042416",
",  c #052417",
"<  c #042418",
"1  c #042618",
"2  c #042B1B",
"3  c #032C1D",
"4  c #03301F",
"5  c #0A0022",
"6  c #0F0721",
"7  c #0E0820",
"8  c #0F0821",
"9  c #100721",
"0  c #100920",
"q  c #100821",
"w  c #100922",
"e  c #120825",
"r  c #110826",
"t  c #0F0035",
"y  c #16043F",
"u  c #033320",
"i  c #023222",
"p  c #043320",
"a  c #023623",
"s  c #023A25",
"d  c #043A24",
"f  c #033E25",
"g  c #033E27",
"h  c #033F27",
"j  c #043F29",
"k  c #044227",
"l  c #02432A",
"z  c #004528",
"x  c #00452B",
"c  c #03462B",
"v  c #04472A",
"b  c #03442C",
"n  c #034B2C",
"m  c #024A2D",
"M  c #024F2F",
"N  c #004E32",
"B  c #015031",
"V  c #005332",
"C  c #045532",
"Z  c #015636",
"A  c #005736",
"S  c #015B37",
"D  c #035C37",
"F  c #025E38",
"G  c #035C3B",
"H  c #045C38",
"J  c #055D3A",
"K  c #026039",
"L  c #00603A",
"P  c #01613B",
"I  c #01633C",
"U  c #01643C",
"Y  c #1B0247",
"T  c #1D024D",
"R  c #190054",
"E  c #1B0356",
"W  c #1F0058",
"Q  c #1C005B",
"!  c #20054E",
"~  c #200054",
"^  c #21005C",
"/  c #20015C",
"(  c #20005F",
")  c #22005F",
"_  c #22045D",
"`  c #220063",
"'  c #240064",
"]  c #240066",
"[  c #250166",
"{  c #260269",
"}  c #27006F",
"|  c #260070",
" . c #280070",
".. c #280170",
"X. c #280071",
"o. c #280076",
"O. c #2B0176",
"+. c #290079",
"@. c #2A007B",
"#. c #2D0278",
"$. c #29017D",
"%. c #2E017E",
"&. c #036641",
"*. c #056743",
"=. c #066742",
"-. c #026940",
";. c #017043",
":. c #027044",
">. c #027145",
",. c #027146",
"<. c #017847",
"1. c #007A46",
"2. c #057649",
"3. c #04774A",
"4. c #017949",
"5. c #017A4B",
"6. c #007C49",
"7. c #027B4C",
"8. c #017F4C",
"9. c #03814F",
"0. c #01834E",
"q. c #038150",
"w. c #018350",
"e. c #018551",
"r. c #028552",
"t. c #018752",
"y. c #008A52",
"u. c #008C54",
"i. c #018E56",
"p. c #058F5B",
"a. c #009155",
"s. c #009157",
"d. c #019859",
"f. c #059E61",
"g. c #00A963",
"h. c #01B26A",
"j. c #02B96F",
"k. c #02C274",
"l. c #01CA79",
"z. c #01CE7C",
"x. c #01D47F",
"c. c #270083",
"v. c #2D0281",
"b. c #2B0085",
"n. c #30028A",
"m. c #32038A",
"M. c #32008D",
"N. c #35028D",
"B. c #2F0092",
"V. c #2E0099",
"C. c #2E009B",
"Z. c #310090",
"A. c #310490",
"S. c #370397",
"D. c #310098",
"F. c #320099",
"G. c #3400A2",
"H. c #3301A6",
"J. c #3700A7",
"K. c #3B00AB",
"L. c #3A01AE",
"P. c #3F07BA",
"I. c #4715A7",
"U. c #4502BA",
"Y. c #480CB8",
"T. c #4403C0",
"R. c #4905C5",
"E. c #4B0EC0",
"W. c #4100CC",
"Q. c #4A03C8",
"!. c #4909CA",
"~. c #4C0CC9",
"^. c #4B10C8",
"/. c #541CC0",
"(. c #5113CB",
"). c #5206D2",
"_. c #5001D6",
"`. c #5311D2",
"'. c #5417D0",
"]. c #5A18DE",
"[. c #5B24C5",
"{. c #662CD6",
"}. c #5C15E2",
"|. c #5F1EE6",
" X c #681FEC",
".X c #6F27F9",
"XX c #7633F8",
"oX c #7933FD",
"OX c #7941DB",
"+X c #7C4ADC",
"@X c #7F40F7",
"#X c #873EFF",
"$X c #8548FB",
"%X c #9367EB",
"&X c #9A64FF",
"*X c #02DD84",
"=X c #3BDB9B",
"-X c #00E387",
";X c #0AE68E",
":X c #01EC8C",
">X c #1DE896",
",X c #04FA97",
"<X c #00FF9C",
"1X c #35E69F",
"2X c #21FDA4",
"3X c #36FFB6",
"4X c #45EBAB",
"5X c #71FFCC",
"6X c #BD97FF",
"7X c #96FFD7",
"8X c #B5FFE2",
"9X c #BFFFE6",
/* pixels */
"                                                                                                                                ",
"                                                                                                                                ",
"                                                                                                                                ",
"                                                                                                                                ",
"                                                                                                                                ",
"                                  w % 9                                                                                         ",
"                                  $ r 9                                                 j                                       ",
"                                w                                                     a       l                                 ",
"                                                                                                ,                               ",
"            M.    OX                                              x   4X=X                                                      ",
"            M.    OX                                              x   4X=X                                                      ",
"                            w               w                                     S       f       ,                             ",
"                                              w                                   j     ;.a.P                                   ",
"                            8                 6                                   P       I S :.    J                           ",
"                            6       }         8                                       -.  k   :.                                ",
"                                     .                                                    M                                     ",
"                                      /                                             i.    M     4.                              ",
"                                  | Q.Z.                                                  F     p.                              ",
"                                  +.Q.L.                                                  <.                                    ",
"                                |                                                   :.    9.    q.                              ",
"                                o.                                                  :.    9.    9.                              ",
"                                W       W                                           J e.  7.    2.                              ",
"                                /   J./ ~                                             a.  e.  i.                                ",
"                              ' +.  T.n.   .                                          y.x g.v q.                                ",
"                              } ' V.#X(.   .                                          7.U l.U 4.                                ",
"                              |     |.~.   .                                            d.x.h.                                  ",
"                               .    V.                                                  j.:X*X                                  ",
"                              o.    #.n.o.                                            . j.<X*X<                                 ",
"                                    F.K.    '                   i                   & 3 j.<Xx.f O                               ",
"                                  c./.n.V.                      l                 < < U *X5X>X<.3 & d                           ",
"                        w   b.U.}.^.%X[.'.  V.  y 8             M             N P U <.h.,X9X2Xk.9.F x j 2                       ",
"                        r / F.T. X.X6X@XoX_.T.$.Y w             M           < m U d.j.-X<X8X2X:Xk.d.:.V 3                       ",
"                                  H.+XI.P.  N.                  m               4 p Z a.,X8X2Xg.Z f C                           ",
"          R                       B.Y.S.B.                      J                   ; V l.3X;XF <                               ",
"          _                         Z.J.                        =.                  @ = h.<Xx.3 O                               ",
"          %.o.                +.    %.v.    '                   =.                      j.<X*X,                                 ",
"          { !                 +.    L.    o.                  b :.                      h.*Xl.                                  ",
"          A.W                     V.XX`.                      P 7.                      9.z.9.i.                                ",
"        # !.$.                      oXE.                      V g.D                   e.V k.m e.                                ",
"        R $X/.t                 }   G.o.                      m -Xm                   e.f f.f 8.                                ",
"    $ { W.6X$XH.Y               T T   ' /                 + X f.1Xx X *               y.  7.  q.                                ",
"        $.&X{.W                  .      `             ; x <.g.2X7Xz.d.U i           F i.  7.    y.                              ",
"        5 ].A.                  +.                    ; x <.g.>X7Xz.d.U i           &.    9.    q.                              ",
"          H./                   ' b.    |                 + X 9.1Xm X *             2.    9.    :.                              ",
"           .T                     o.R.F.                      9.:Xv                 p.    :.    -.                              ",
"          #.'                       ).                        :.h.D                 4.    V     <.                              ",
"           .                        v.                        Z 7.                :.;.    m     6.                              ",
"          T                         '                         b :.                2.      m                                     ",
"                                              w                 =.                p.  <.  v                                     ",
"                                              6                 =.                p.    -.9.                                    ",
"                                              8                 J                 P       7.      d                             ",
"                                                                m                         i       4                             ",
"                                                                M                                                               ",
"                              8           w                     M                   :           s                               ",
"                                          6                     l                     2         j                               ",
"                                        9                       i                     i       ,                                 ",
"                                  8 9                                                   p i i                                   ",
"                                    8                                                     2                                     ",
"                                                                                                                                ",
"                                                                                                                                ",
"                                                                                                                                ",
"                                                                                                                                ",
"                                                                                                                                ",
"                                                                                                                                "
};
