/* XPM */
static char *f00b082e28ab432c920e0ff565977f36hTdDz4JzbsBCcj2A[] = {
/* columns rows colors chars-per-pixel */
"64 64 166 2 ",
"   c None",
".  c #050202",
"X  c #040104",
"o  c #040909",
"O  c #06170F",
"+  c #041510",
"@  c #051610",
"#  c #061610",
"$  c #041A10",
"%  c #041A12",
"&  c #061C13",
"*  c #061D13",
"=  c #071E13",
"-  c #041A14",
";  c #032116",
":  c #062015",
">  c #052116",
",  c #052216",
"<  c #042316",
"1  c #052316",
"2  c #052217",
"3  c #062317",
"4  c #032417",
"5  c #032318",
"6  c #052318",
"7  c #062318",
"8  c #032619",
"9  c #052519",
"0  c #062618",
"q  c #04281B",
"w  c #042A1B",
"e  c #042D1C",
"r  c #042F1E",
"t  c #042F1F",
"y  c #03321F",
"u  c #023420",
"i  c #033521",
"p  c #023723",
"a  c #053520",
"s  c #043521",
"d  c #063722",
"f  c #043823",
"g  c #033924",
"h  c #023B25",
"j  c #033D27",
"k  c #013F28",
"l  c #014328",
"z  c #024229",
"x  c #01432A",
"c  c #02432A",
"v  c #02442A",
"b  c #02452B",
"n  c #00462B",
"m  c #01462C",
"M  c #02462D",
"N  c #02492D",
"B  c #03492E",
"V  c #014C2F",
"C  c #034C2E",
"Z  c #024D2E",
"A  c #004F30",
"S  c #024F31",
"D  c #004E32",
"F  c #005030",
"G  c #005031",
"H  c #015332",
"J  c #045031",
"K  c #015433",
"L  c #005434",
"P  c #005634",
"I  c #005635",
"U  c #025634",
"Y  c #005736",
"T  c #015737",
"R  c #015835",
"E  c #025A36",
"W  c #065A37",
"Q  c #035D36",
"!  c #005E38",
"~  c #025E39",
"^  c #05623A",
"/  c #00633C",
"(  c #02633C",
")  c #00653C",
"_  c #02653C",
"`  c #00663C",
"'  c #00653F",
"]  c #00693F",
"[  c #01693F",
"{  c #056541",
"}  c #036B43",
"|  c #006F42",
" . c #036E42",
".. c #007340",
"X. c #037344",
"o. c #007746",
"O. c #017B48",
"+. c #047C4E",
"@. c #02804C",
"#. c #00854D",
"$. c #00874D",
"%. c #00854E",
"&. c #01844F",
"*. c #00874F",
"=. c #028650",
"-. c #008851",
";. c #028B51",
":. c #008C52",
">. c #028A55",
",. c #008D56",
"<. c #038C56",
"1. c #009355",
"2. c #029056",
"3. c #019657",
"4. c #009957",
"5. c #06905A",
"6. c #009458",
"7. c #019658",
"8. c #02965C",
"9. c #05965D",
"0. c #009A58",
"q. c #019B5A",
"w. c #009D59",
"e. c #009C5B",
"r. c #049A5F",
"t. c #019F5F",
"y. c #02A263",
"u. c #03A566",
"i. c #00AA66",
"p. c #01AE67",
"a. c #03A968",
"s. c #04AB6C",
"d. c #06AC6C",
"f. c #02B26C",
"g. c #02B96F",
"h. c #00C370",
"j. c #01C375",
"k. c #01C876",
"l. c #02CA78",
"z. c #01D37A",
"x. c #05D384",
"c. c #06D786",
"v. c #01DD82",
"b. c #24D592",
"n. c #01E487",
"m. c #02EA8D",
"M. c #00F88D",
"N. c #06ED93",
"B. c #01F493",
"V. c #00FF90",
"C. c #01FD97",
"Z. c #0CFD9A",
"A. c #28EC9C",
"S. c #19FEA0",
"D. c #23FFA8",
"F. c #43E9A5",
"G. c #45FFB3",
"H. c #46FFBA",
"J. c #57F6B8",
"K. c #63F6BC",
"L. c #79FEC7",
"P. c #8FFFD1",
"I. c #D3FFED",
"U. c #D3FFF0",
"Y. c #E2FFF3",
"T. c #EEFFF7",
/* pixels */
"                                                                <                                                               ",
"                                      5                         <                                                               ",
"                                                                <                       7                                       ",
"                                        <                       <                       <                                       ",
"                                        <                       <                     <                                         ",
"                                          0                 c   B                     v                                         ",
"                                          r               7 c   L                                                               ",
"                                                        j g     L     B v           L                                           ",
"                                            L         5         L       7 <                                                     ",
"            1.        E d     J.b.                                        <       ;.                                            ",
"            1.        E d     J.b.            )     r           g           <     0.                                            ",
"                                              e.  D           i D           <                                                   ",
"                                                (           #.( 3.]           H 6.                                              ",
"                                                X.        H   M O.  ]  .      o.C                                               ",
"                                                J       ] H   d ~   )  .      6.                                                ",
"                                                  4.    0.    d ]                                                               ",
"                                                      ]       d (       1.~ c.                                                  ",
"                                                    N.        c X.0         +.    H                                             ",
"                                                    >.        D 1.0         M     v                                             ",
"                                            7       ~ c.      D u.;       <.                                                    ",
"                                            <       L <.)     D y.;     t.^ #.                                                  ",
"                                                  )   W t.    B t.$     k.          0                                           ",
"                  <                               L     k.    ~ u.i   6.@.    )     r                                           ",
"                  <                             #.      =.8.X <.l.v   j.d     e.    L                                           ",
"                  7                                       h.@ t.C.j E t.      e.    L                                           ",
"                  v                                       <.;.u.B.5.f.L       )                                                 ",
"                  )                                       C v.l.B.v.k..               5                                         ",
"                  L                             H         f v.B.V.B.t.@         (                                               ",
"                  c                       $         $ @ w K k.C.V.B.1.j - &     0.                                              ",
"                  (                       v     H X r y D y.v.H.P.Z.j.=.y g O @ M                                               ",
"                  X.                      L   M =.D  .<.0.m.M.L.T.S.M.l.<.<.~ E K   H w                                         ",
"                   .                  < < D E E 3.0.t.x.x.C.V.L.Y.S.C.m.x.j.3.t.@.D ~ j < 4                                     ",
"                  ]                           r y r K ( O.x.M.L.T.S.m.g.( ] f j X.    L                                         ",
"                  =.                                8 w c =.z.D.G.Z.p.] w y $                                                   ",
"                  5.                                  O < v l.V.V.C.<.w @ O                                                     ",
"            7     5.    5                       0.        f n.m.V.m.p.o                                                         ",
"                i u.4                     <               ) z.g.m.y.v.        H                                                 ",
"              #.v p.r                                     p.E y.C.E @.i.      o.                                                ",
"              J K h.O.L                         (       H f.o 3.B.c < j.            <                                           ",
"              @ O.n.k.@                                 y.;.. @.g.v   t.#.          <                                           ",
"      & & @ @ D n.K.0.g @ @ &                     4.  d l.    K y.;   H g.          <                                           ",
"  < M D @.1.d.z.H.I.A.k.d.;.O.H k &         &         X.>.    B y.<     g.#.                                                    ",
"  < M D @.1.f.l.F.U.A.k.d.;.O.H k &         i       i 5.      D u.;     } r.                                                    ",
"      & & @ @ c p.K.0.g @ @ &               L        .        D y.;       r.                                                    ",
"              w z.v.k.@                             5.        D =.w       {       <                                             ",
"              Q @.h.O.L                       B   J a.c       g  .        =.9.                                                  ",
"              #.f f.r                         B   +.  C       d (       :...8.  &                                               ",
"                i u.4                           r s.    L     d (       B                                                       ",
"            7     5.    5                        .      #.)   d (     C       e.                                                ",
"                  5.                            d.          #.K 3.L           H #.                                              ",
"                  =.                            8.          #.K =.)           7 #.                                              ",
"                  ]                           e.  $           0 g           M                                                   ",
"                   .                          :.    7           C                 L                                             ",
"                  X.                        )         <                   k       H                                             ",
"                  (                         L         <         L       < C         L                                           ",
"                  c                                     v <     L     w 5           L                                           ",
"                  L                       L                 v r L < c                                                           ",
"                  )                                           0 d                     r                                         ",
"                  v                     <                       $                                                               ",
"                  7                     0                       <                       <                                       ",
"                  <                                             5                       <                                       ",
"                  <                                             <                         5                                     ",
"                                                                                                                                ",
"                                                                                                                                "
};
