/* XPM */
static char *_ec4a619bd7247c1972398cd6431bfcf[] = {
/* columns rows colors chars-per-pixel */
"64 64 68 1 ",
"  c None",
". c #BCBCBC",
"X c #BBBBBB",
"o c gray75",
"O c gray",
"+ c #C6C6C6",
"@ c gray74",
"# c gray77",
"$ c gray73",
"% c gray76",
"& c #C5C5C5",
"* c #C0C0C0",
"= c gray72",
"- c #C3C3C3",
"; c gainsboro",
": c #C1C1C1",
"> c gray78",
", c gray93",
"< c #B9B9B9",
"1 c #EAEAEA",
"2 c gray70",
"3 c #C8C8C8",
"4 c #DADADA",
"5 c #F8F8F8",
"6 c #CBCBCB",
"7 c #EEEEEE",
"8 c gray91",
"9 c gray96",
"0 c #D7D7D7",
"q c gray92",
"w c #DFDFDF",
"e c gray90",
"r c #CACACA",
"t c #B7B7B7",
"y c #E7E7E7",
"u c gray71",
"i c #FDFDFD",
"p c #B6B6B6",
"a c #FBFBFB",
"s c #E2E2E2",
"d c #FEFEFE",
"f c gray85",
"g c #DDDDDD",
"h c #D5D5D5",
"j c gray95",
"k c gray89",
"l c #F3F3F3",
"z c #F6F6F6",
"x c #B4B4B4",
"c c gray94",
"v c gray88",
"b c gray80",
"n c #B1B1B0",
"m c gray83",
"M c #F9F9F9",
"N c gray79",
"B c #E4E4E4",
"V c #CECECE",
"C c gray82",
"Z c #AFAFAF",
"A c #CDCDCD",
"S c gray98",
"D c #D0D0D0",
"F c gray68",
"G c #A9A9A9",
"H c #ACACAC",
"J c gray66",
"K c #A4A4A4",
/* pixels */
"dddddddddddddddddddddddddddddddddddddddddddddddi5j,,77,15ddddddd",
"iiiiiiiiiiiiiiiiiiiiiiiiiiiiiiiiiiiiiiiiiiiiiii5,BvwB8,jaiiiiiii",
"aaaaaaaaaaaaaaaaaaaaaaaaaaaaaaaaaaaaaaaaaaaaaM5cev4fvyjSaaaaaaaa",
"MSMSSSSMSSSSSMMMSMMMMMMMSSMSMMSMSMMMMMMMMMMSMl71qq8e,l5aMMMMSSMM",
"555Mzcljc9zz555555555555555555555555555555555zc7z559zM5555555555",
"z59ljqkskeeq955555zzzzzzzzzzzzzzzzzzzzzzzzzzz55z55555zzzzzzzzzzz",
"9zj18e;0;;wB7999999999999999999999999999999999999999999999999999",
"l9cBwwg00;gv17,1q,jlllllllllllllllllllllllllllllllllllllllll999l",
"jl,g0000h;;ve8kwky87jjjjjjjjjjjjjjjjjjjjjjjjjjjjjjjjjjjjjjjj,117",
"cc1w;4fgvBy81yyeBBk,ccccccccccccccccccccccccccccccccccccccc711,7",
",,,q1ee,,,777777,,,777777777777777777777777777777777777777777777",
",,,,88,7,,,,,,,,,,,,,,,,,,,,,,,,,,,,,,,,,,,7qy81q,,,,,,,,,,,,,,,",
",q111qqqqqqqqqqqqqqqqqqqqqqqqqqqqqqqqqqq,,qyevwweqqqqqqqqqqqqqqq",
"118111111111111111111111111111111111111111s;g;;;s111111111111111",
"888888888888888888888888888888888818888eskssw;4f4s88888888888888",
"yyyyyyyyyyyyyyyyyyyyyyyyyyyyyyyyyyeeyyyeBvgwgff44vyyyyyyyyyeyyyy",
"eeeeeeeeeeeeeeeeeeeeeeBBBBBeeeeeeesskBekv;wsvwwgwvvkeeeeeeeeeeee",
"kkkkkkkkkkkkkkkBBkkkBkkkkkkBBBBBBssvwg4fmmh0fhCh400;kBkBBBBkkkkk",
"sssssssssssssskkkkkssskksssssvsksggvw;0;vw;;;g;40CC0wssvsvssssss",
"vvvvvvvvvvsssv;f4g;gwwg;;4f;4;;ff;wv;04wwvssssssw;f;wvvvvvvvvvvv",
"wwwwwwwwwwwgfmAADmhf;;ff0hh0h0hm0gvww;;;;gwwwwwwwvvwg;gwwwwwwwww",
"ggggggggw;mVAbb6bC0;g;gww0mCDmh0;gg;04;;gggggggggggg;4;g;ggggg;g",
"4;;;;;g;;fCAAV66bVVm4;;;4mVAVmmmh0f404;;;;;;;;;;;;;;;;;;;;;;;;;;",
"444440hhCVbr6bb66bVm444f4f0hh04444444444444444444444444444444444",
"0mhhCAVArr6rrVmmDCmh0f00ff0fffffffff0f0ffffffff4444fffffffffff00",
"mmCbrbVAAb6NNACmhh000000000000000000000000hDVAbVCCVVVDmmhhmhhhhh",
"DV6NNrrNNNNrr6DmhhhhhhhhhhhhhhhhhhhmmhhhmD6>3:o***o*:#N3rVVVVAVC",
"+&##&++>>++>r6VCmmmmmmmmCCmmmCCDVVbb6666N>>>>-*o@..Oo:+>3>33+&&+",
":O.@%&##&&+>3++rVCmCCCCV>>>>3>>++>>++>>33+&++&-:::%-##+++#-*@@O:",
"@X$.o%##+3NN6ADDDCDCCCVr&&-***o@@O:-%#&&&&++&++&#&+>>+&#&*X$XX.@",
"ut$O*%-#+3Nbbb66b66AAA6+-#-O.XX.XX@*&&--+N3>+>+++&#&+&-%:.<txxxx",
"$XO:-:#+&-&r6+&+>+&#--%%%**O@@@Oo*:%&>+&>>>Nrr3>++>33&%:@XX...$<",
"o:*%##&>N6bbbrNr3&-%%%%-##%%:***%&>rrrbb6NrbAAAAAAAb3-%-*@OOoO@O",
"*:%%+3rbbbbbbbbb66N+&#:%#####-&+3r6bbbbbbbbbb66rN3>+-%-#--%*o:%*",
":::%#+3r666666666666rN+###&+&+3r6b666666666666r33333NNrrr3>+++#%",
"#--&>Nrrrrrrrr6rr>##--%-%:*:%%##&#-#&+>NrNNrrrr6666663>++&%::--#",
"-#&%*%>NNN3>33+-%%%%*o***o@o%%%%:o***:%+3NNrrrrrrrN>-%-%ooooOo*%",
"%-::-&33333>&:*-%:***O.$<XX.%&+&&-%---##--&>+&&&##%:*:--%::*oo*:",
"&-#>333333NN3#%%o@X$$..@@OO*-%-+3333333>+++>+&&&--#&+>33333>&-##",
"-#&######-%%-&#--:O@$<=t=XO*ooo-+>>3>>>>>>>>>>>>>>>>3333>>333+&-",
"#&&+++&&#%:%--%%%*Oo::O@OO**o*oooo:#++++++>+++++++>+&#&+++&++>&#",
"%%%--####&++&-:oO@@o:::--%%%%%%:::::-&+&&#-#++&+++#%**oo*oO*::%%",
"*-:o***oOo:%--%*o*:--#&+++++++++++&&&&&&&&##&&&&#&&###--%%:oO@@@",
".@@..@:--##--##-:*ooooo*::::%:::%-############&##-%%%%---%:o@...",
"OO..@@o***Oo:*ooO@@@.@O.XXXX$<X@*%-#######---%*OOoooOOOOOo*oo*oO",
"O@@@@..@@OO.X.X.@OoooO@@@o:%:oOOOo*:::****%:o@.XO::oOO@@@@@@O@OO",
"%%%:o@..@.X$<.$XX..X..@OOo:&366>%oOOoo@@o*oO.X.@OOoooo*ooo****:%",
"%%:*O@.X$$XOo.X=pp=<$.@@.=puu22nn2xu=tt=<=p=$$X..X...@O**:%%%%%%",
"o**oO@..XXXXX$X.oO$$....@O@XX<$.X$=ttpuuup=<$.O@...o:O$...@OooOO",
"$X.@OoooOOOOoo*ooO..@OOOOO@XXX$.@OO@..X..@XXXX<X.XXO**OOoO....$$",
"<==<$X..Ooo*O..Oooo**ooooooO@...XX<==<$X..XXX=<.X$$X.@OOOooO@.X$",
"X$<<=<==$XX.$<$X.......X$$@@@o*ooO.XXX@.$<$$X..@@..@@@O@..X$=X..",
".@OO..X.X<=<X.X$$X$==<=$X$$XX<ppt===<<XX=t=<$$$$$X$=$XX$$X.XXXXX",
"222xpuutun2x2xupt==ttpp==u22uu2u<..XXX.XX...@@.XX..<<<X.$<p22nZn",
"x2nn2utpuut<$.@.X@Oo.$$$$.X<tpuxxuuxx222p===XXX.X$<$$$$$XXX..X<t",
"===<<$@o%####%****oO@@@@O*o*oOX22pupttpptpt=p==px22xuxuttt=t<<<<",
"xxp=puppp==tuu$o-+>>r6r3&O<=$X@o--%o..@OX<=pupuupt=<=uux22222xxx",
"$===tpp2nn22ZGGGJGGJJGGHnxu2nFGJGHZZ2xuttuuxxxppuxupt=<<==$$$<$$",
"x2nn222ux2nu<<$X<==txnFHHFn2n2utpxnn2pt=<$X$$@O@@OO@.@.X$<<$<=tp",
"Znn2xux2nnn2ut<X..X$X.X<ttpuut<=t===<=puuppupxnZZnnnnZn22n222nFZ",
"$.O:#&+#:O.=2ZJKKKJHn2p==<=t2nnZFZZZFZZZFFFZnnn2upppux22222nZ2t=",
"-#&+>>>rN&*.$<=tpt==pux2xuuxx2ZZnnn2xxup=<=====t==tt=<XXXXX.@o*:",
"=ttpp=<.OOO@.$t=$=t2Fn2xx2x=$<<X@.X$XX$<$$<===tux2ZFZZFHHFZZn22u",
"<<<$$X$<<<<=<$$.@@....Oo.=ptpttt=$XXX$=t<$$==$XXXX..@.XXXX$$$XXX"
};
