/* XPM */
static char *a403d5190ae14b04db772902a322bcd3kWr3ASpLjKLG3Kol[] = {
/* columns rows colors chars-per-pixel */
"64 32 23 1 ",
"  c None",
". c #122D17",
"X c #311A29",
"o c #222034",
"O c #47102E",
"+ c #45283C",
"@ c #6F283E",
"# c #416129",
"$ c #292F46",
"% c #502754",
"& c #C6713E",
"* c #8B3753",
"= c #B75E5E",
"- c #A4BA4A",
"; c #FFC866",
": c #5A7F8F",
"> c #7FBCA1",
", c #FF9292",
"< c #B1E1A2",
"1 c #EDF3A4",
"2 c #FFDCDC",
"3 c #CBDBFC",
"4 c white",
/* pixels */
"       oo             oooo            oooo           oooooooo   ",
"      o<>o           o*&%*o         oo....oo        o%*,,2,*%o  ",
"      o:>o          o%&%%&%o       o.##.#-#.o      o%%%%%%%%%%o ",
"     o<$$>o        o*%;%*%**o      o#--#-1-#o     o%%*%**%**%*o ",
"     o>:<:o        o&*%*&*&&o     o....-1....o    o**,*,,*,,*,o ",
"     o>$>$o       o;&&*&;&&&;o    o#.#....#.#o    o*,2,22,22,2o ",
"     o:$:$o       o%&;&&;&;&%o    o-#-#..#-#-o    o2,22%%22%%2%o",
"     o$$$$o       o%;%;&;;;%%o   o...1#.#-1...o  o%%2%%%*%%%*%*o",
"    o><$$<>o     o**%*%&;%;%**o  o.#...#-...#.o  o*%%%%***%*,*,o",
"    o<><:<<o     o&***%;%*%**&o  o##.#....#.##o  o,**%**,*%*,,o ",
"    o>:>$><o     o&;&*%;%***&&o   o-#-#..#-#-o    o2,**,,**,2o  ",
"   o:>$>$:>:o   o%;;&&*%&;&&;&%o  o1-1-#.-1-1o    o%2,*,2,*,2o  ",
"   o$:$:$::$o   o%;%;&&*&;&;%;%o  o...1#-1...o   o%%%2,222,22%o ",
"   o$$$:$$$$o   o*%*%;%&;%;%*%*o o#.#......#.#o  o%*%%2%%%2%%%o ",
"   o>$$$$$$<o   o&*&%;%%;%;%&*&o o-##.#..-.###o  o*,**%*%*%*%*o ",
"  o><<>$$<<><o   o;&*%*%%*%*&&o  o1--#-#.#--#-o  o,2*,*,*,*,2%o ",
"  o<><:<<><><o   o%;&*&%*&*&;%o  o1-1......1-1o   o%22,2*,,2%o  ",
"  o<><:><><:>o    o%;;&*&;&;%o    o...#.##...o     oo%%%22%oo   ",
"  o>:>$:<>>:>o     oo%&%&%&oo     o#-#-oo-#-#o       oooooo     ",
" o:>$>$:>:>$>:o      oooooo       o-1oo  oo1-o      o%o+Xo      ",
" o$:$:$:>$:$:$o       o43o         ooOo  o@oo      o%*%oXo      ",
" o$$$:$$:$:$$$o       o34o         o=@o  o@Oo      o*,*o+o      ",
" o<$$$$$:$$$$>o       oo4o          o@Ooo@Oo        o,2o+o      ",
"o:>><<$$$$><>:>o      o44o          o=@OO@Oo         oo+Xooo    ",
"o$>:><:><><>:$:o      o44o           o=@O@o           oXo%%%o   ",
"o$:$:>$:>:>::$:o      o34o           o=@O@o           o+o%**%o  ",
"o$:$:>$:>$:$:$$o      o43o            o=@o            o+o**,*o  ",
" o$$$:$$:$:$$$o       o4oo            o=Oo            oXo*,2,o  ",
"  oo$$$$$$$$oo        o44o            o@Oo            oX+o,2o   ",
"    oooooooo          o44o            o=@o            o+Xooo    ",
"     oX+X+o           o34o            o=@o            o+Xo      ",
"     oX+X+o           oo3o            o@Oo            oX+o      "
};
