/* XPM */
static char *_632e16cff0b4144d86068f713206cccU7b6VnGZ9wBXCxdb[] = {
/* columns rows colors chars-per-pixel */
"23 52 20 1 ",
"  c None",
". c #CF8C61",
"X c #E4A672",
"o c #D77643",
"O c #3E8948",
"+ c #265C42",
"@ c #63C74D",
"# c #193C3E",
"$ c #0C594A",
"% c #FEE761",
"& c #4CA14A",
"* c #EAD4AA",
"= c #B55088",
"- c #68386C",
"; c #D76381",
": c #8C4379",
"> c #F6757A",
", c #D46281",
"< c #3E8646",
"1 c white",
/* pixels */
"                       ",
"                       ",
"         .XXX          ",
"         .oXo          ",
"         oXXX          ",
"        O++O@O         ",
"        +##$$+         ",
"        O##$$O         ",
"        O##$@O         ",
"        O##$@O         ",
"        O++O@O         ",
"        O++O%O         ",
"        O++O%O         ",
"        O++O%O         ",
"        O++O%O         ",
"        O++O@O         ",
"        O++O@O         ",
"        O++O@O         ",
"        O++O@O         ",
"    OOOOOO@@@@@%@@     ",
"   OOOOOOOOOOOOO@%O    ",
"  O+++&&+O++OOOO@%OO   ",
"  O+++&&+O++OOOO@%OO   ",
"  O+++&&+O++OOOO@@OO   ",
"  O+++&&+OO+OOOO@@OO   ",
"  O+++&&+XXXXXX**XXX   ",
"  O+++&&+XXXXXX**XXX   ",
"  O###+++XXXXXX**XXX   ",
"  O###+++XXXXXX**XXX   ",
"  O###+++XXXXXX**XXX   ",
"  O###+++XXXX==**==X   ",
"  O###+++XX-=====;=X   ",
"  O###+++XX-:==:>=:=   ",
"  O###+++XXX=:==,===   ",
"  O###+++XXX--:==;=X   ",
"  O###+++XXXX::=>==X   ",
"  O###+++XXX--==,=XX   ",
"  O###+++XXX::=-==XX   ",
"  O###+++XXXX::=,XXX   ",
"  O###+++XXXX:--=XXX   ",
"  O###<<+XXXXX=-*XXX   ",
"  O###<<+XXXXXX**XXX   ",
"  O###<<+XXXXXX**XXX   ",
"  O###<<+###+++OO@+O   ",
"  O###<<+###+++OO@+O   ",
"  O###<<+###+++OO@+O   ",
"  O###+++###+++++++O   ",
"  O###+++###+++++++O   ",
"  O+##+++###++++++OO   ",
"  O+++OOOOOOOOOOOOOO   ",
"   ++++++++++++++++    ",
"                       "
};
